<svg width="12" height="12" viewBox="0 0 12 12" fill="none" xmlns="http://www.w3.org/2000/svg">
<g clip-path="url(#clip0_1272_4438)">
<path d="M8.59149 4.35165C7.37172 3.66941 5.41396 2.5739 2.37732 0.873618C2.17259 0.73841 1.93704 0.720691 1.73352 0.789577L6.94354 5.9996L8.59149 4.35165Z" fill="#73768A"/>
<path d="M1.73357 0.789612C1.69542 0.802532 1.6583 0.818118 1.62281 0.836944C1.39806 0.958515 1.23291 1.19245 1.23291 1.48831V10.511C1.23291 10.8068 1.39804 11.0408 1.62281 11.1623C1.65824 11.1811 1.69534 11.1968 1.73345 11.2098L6.94359 5.99963L1.73357 0.789612Z" fill="#73768A"/>
<path d="M6.94354 5.99963L1.7334 11.2098C1.93698 11.2792 2.17253 11.2628 2.37732 11.1256C5.32221 9.47658 7.25791 8.39405 8.49178 7.70601C8.52613 7.68671 8.55979 7.66785 8.59305 7.64916L6.94354 5.99963Z" fill="#73768A"/>
<path d="M1.23291 5.99957V10.5109C1.23291 10.8068 1.39804 11.0407 1.62281 11.1622C1.65824 11.181 1.69534 11.1967 1.73345 11.2097L6.94359 5.99957H1.23291Z" fill="#73768A"/>
<path d="M2.37737 0.873619C2.13425 0.713084 1.84755 0.717657 1.6228 0.836931L6.86451 6.07866L8.59152 4.35165C7.37177 3.66941 5.41401 2.5739 2.37737 0.873619Z" fill="#73768A"/>
<path d="M6.86455 5.92059L1.6228 11.1623C1.84757 11.2816 2.13425 11.2884 2.37737 11.1256C5.32226 9.47657 7.25795 8.39405 8.49183 7.70601C8.52618 7.68671 8.55983 7.66784 8.59309 7.64916L6.86455 5.92059Z" fill="#73768A"/>
<path d="M10.7671 5.9996C10.7671 5.74961 10.6409 5.49732 10.3909 5.35741C10.3909 5.35741 9.92335 5.09653 8.4902 4.29492L6.78552 5.9996L8.49186 7.70595C9.90928 6.9101 10.3909 6.64176 10.3909 6.64176C10.6409 6.50187 10.7671 6.24959 10.7671 5.9996Z" fill="#73768A"/>
<path d="M10.3909 6.64176C10.6409 6.50185 10.7671 6.24956 10.7671 5.99957H6.78552L8.49186 7.70593C9.9093 6.9101 10.3909 6.64176 10.3909 6.64176Z" fill="#73768A"/>
</g>
<defs>
<clipPath id="clip0_1272_4438">
<rect width="10.5" height="10.5" fill="white" transform="translate(0.75 0.75)"/>
</clipPath>
</defs>
</svg>
