<svg width="12" height="13" viewBox="0 0 12 13" fill="none" xmlns="http://www.w3.org/2000/svg">
<g clip-path="url(#clip0_1263_6747)">
<path d="M8.59149 4.85162C7.37172 4.16938 5.41396 3.07387 2.37732 1.37359C2.17259 1.23838 1.93704 1.22066 1.73352 1.28955L6.94354 6.49957L8.59149 4.85162Z" fill="#3D3F4A"/>
<path d="M1.73357 1.28958C1.69542 1.3025 1.6583 1.31809 1.62281 1.33691C1.39806 1.45848 1.23291 1.69242 1.23291 1.98828V11.0109C1.23291 11.3068 1.39804 11.5407 1.62281 11.6623C1.65824 11.6811 1.69534 11.6967 1.73345 11.7097L6.94359 6.4996L1.73357 1.28958Z" fill="#3D3F4A"/>
<path d="M6.94354 6.4996L1.7334 11.7097C1.93698 11.7791 2.17253 11.7628 2.37732 11.6256C5.32221 9.97655 7.25791 8.89402 8.49178 8.20598C8.52613 8.18668 8.55979 8.16781 8.59305 8.14913L6.94354 6.4996Z" fill="#3D3F4A"/>
<path d="M1.23291 6.4996V11.0109C1.23291 11.3068 1.39804 11.5407 1.62281 11.6623C1.65824 11.6811 1.69534 11.6967 1.73345 11.7097L6.94359 6.4996H1.23291Z" fill="#3D3F4A"/>
<path d="M2.37737 1.37362C2.13425 1.21308 1.84755 1.21766 1.6228 1.33693L6.86451 6.57866L8.59152 4.85165C7.37177 4.16941 5.41401 3.0739 2.37737 1.37362Z" fill="#3D3F4A"/>
<path d="M6.86455 6.42056L1.6228 11.6623C1.84757 11.7815 2.13425 11.7884 2.37737 11.6256C5.32226 9.97654 7.25795 8.89401 8.49183 8.20598C8.52618 8.18668 8.55983 8.16781 8.59309 8.14913L6.86455 6.42056Z" fill="#3D3F4A"/>
<path d="M10.7671 6.4996C10.7671 6.24961 10.6409 5.99732 10.3909 5.85741C10.3909 5.85741 9.92335 5.59653 8.4902 4.79492L6.78552 6.4996L8.49186 8.20595C9.90928 7.4101 10.3909 7.14176 10.3909 7.14176C10.6409 7.00187 10.7671 6.74959 10.7671 6.4996Z" fill="#3D3F4A"/>
<path d="M10.3909 7.14179C10.6409 7.00188 10.7671 6.74959 10.7671 6.4996H6.78552L8.49186 8.20596C9.9093 7.41013 10.3909 7.14179 10.3909 7.14179Z" fill="#3D3F4A"/>
</g>
<defs>
<clipPath id="clip0_1263_6747">
<rect width="10.5" height="10.5" fill="white" transform="translate(0.75 1.25)"/>
</clipPath>
</defs>
</svg>
