<svg width="12" height="12" viewBox="0 0 12 12" fill="none" xmlns="http://www.w3.org/2000/svg">
<path d="M9.12446 6.37769C9.12446 4.85782 10.3802 4.13059 10.4133 4.09753C9.71983 3.07351 8.59592 2.91182 8.2323 2.91182C7.30708 2.81265 6.41493 3.47341 5.95214 3.47341C5.4563 3.47341 4.76643 2.94523 3.96949 2.94523C2.9778 2.94523 2.01989 3.53989 1.52405 4.43204C0.433552 6.28247 1.22654 8.99524 2.25092 10.4792C2.74677 11.2061 3.34142 12.0321 4.13441 11.999C4.89434 11.966 5.19185 11.5032 6.11706 11.5032C7.04228 11.5032 7.30277 11.999 8.09971 11.966C8.92612 11.966 9.42196 11.2391 9.91709 10.5119C10.5117 9.68546 10.7435 8.85978 10.7435 8.79367C10.7104 8.79367 9.15751 8.19901 9.12446 6.38128V6.37769ZM7.63765 1.91654C8.03432 1.38835 8.33111 0.693821 8.26535 0C7.6707 0.0330562 6.94311 0.396668 6.5141 0.925208C6.15048 1.35494 5.78722 2.08218 5.88639 2.77565C6.5141 2.8087 7.20864 2.41202 7.63765 1.9133V1.91654Z" fill="#73768A"/>
</svg>
