<svg width="128" height="129" viewBox="0 0 128 129" fill="none" xmlns="http://www.w3.org/2000/svg">
<path d="M54.8942 57.9503C55.5837 57.9503 56.245 58.2388 56.7326 58.7523C57.2202 59.2657 57.4941 59.9622 57.4941 60.6883V68.1972C57.4941 68.5565 57.4268 68.9122 57.2961 69.2441C57.1654 69.5759 56.9738 69.8773 56.7323 70.1311C56.4908 70.3848 56.2041 70.5859 55.8887 70.7228C55.5733 70.8597 55.2353 70.9297 54.8942 70.9289C54.5533 70.9297 54.2157 70.8597 53.9006 70.7227C53.5855 70.5857 53.2993 70.3845 53.0583 70.1307C52.8172 69.8769 52.6262 69.5754 52.4961 69.2436C52.366 68.9118 52.2995 68.5562 52.3003 68.1972V60.6883C52.2995 60.3291 52.366 59.9732 52.496 59.641C52.626 59.3089 52.8169 59.007 53.0579 58.7526C53.2988 58.4983 53.5851 58.2965 53.9002 58.1589C54.2153 58.0212 54.553 57.9503 54.8942 57.9503Z" fill="#3D3F4A"/>
<path d="M54.8942 50.9243C55.5806 50.9276 56.2379 51.2167 56.7227 51.7285C57.2075 52.2402 57.4804 52.9331 57.482 53.6559C57.4804 54.381 57.2058 55.0758 56.7184 55.5879C56.231 56.1 55.5706 56.3876 54.8821 56.3876C54.1942 56.3876 53.5344 56.0998 53.0479 55.5875C52.5615 55.0752 52.2882 54.3804 52.2882 53.6559C52.2882 53.2961 52.3557 52.9399 52.4868 52.6077C52.6179 52.2754 52.81 51.9737 53.0522 51.7199C53.2943 51.466 53.5817 51.2651 53.8978 51.1286C54.2139 50.992 54.5525 50.9226 54.8942 50.9243Z" fill="#3D3F4A"/>
<path d="M53.0182 72.6061H74.9759C75.6654 72.6061 76.3268 72.8946 76.8143 73.4081C77.3019 73.9216 77.5758 74.618 77.5758 75.3442C77.5742 76.0692 77.2996 76.764 76.8122 77.2761C76.3248 77.7882 75.6644 78.0758 74.9759 78.0758H53.0182C52.3308 78.0741 51.6719 77.7858 51.1858 77.2739C50.6997 76.762 50.4259 76.0681 50.4243 75.3442C50.4243 74.6191 50.6974 73.9236 51.1837 73.4103C51.67 72.897 52.3297 72.6078 53.0182 72.6061Z" fill="#3D3F4A"/>
<path d="M75.6937 62.5244V68.21C75.6615 68.9126 75.3739 69.5751 74.8904 70.0603C74.4069 70.5455 73.7646 70.8162 73.0968 70.8162C72.4289 70.8162 71.7866 70.5455 71.3031 70.0603C70.8196 69.5751 70.532 68.9126 70.4998 68.21V61.3936C70.4998 60.6691 70.2265 59.9743 69.7401 59.462C69.2536 58.9497 68.5939 58.6619 67.9059 58.6619C67.218 58.6619 66.5582 58.9497 66.0718 59.462C65.5853 59.9743 65.312 60.6691 65.312 61.3936V68.21C65.2799 68.9126 64.9922 69.5751 64.5087 70.0603C64.0252 70.5455 63.383 70.8162 62.7151 70.8162C62.0472 70.8162 61.405 70.5455 60.9215 70.0603C60.438 69.5751 60.1504 68.9126 60.1182 68.21V62.5244V61.527C60.0966 60.4507 60.2765 59.3806 60.6478 58.3776C61.019 57.3746 61.5742 56.4584 62.2817 55.6815C62.9893 54.9045 63.8352 54.282 64.7712 53.8494C65.7073 53.4169 66.7151 53.1828 67.737 53.1605H68.0628C69.0853 53.1811 70.0938 53.4138 71.0309 53.8452C71.9679 54.2767 72.815 54.8984 73.5237 55.6748C74.2324 56.4513 74.7888 57.3672 75.1612 58.3703C75.5335 59.3733 75.7145 60.4439 75.6937 61.5206V62.518V62.5244Z" fill="#3D3F4A"/>
<path d="M0 4.37879C0 3.35007 0.408657 2.36348 1.13607 1.63607C1.86348 0.908657 2.85007 0.5 3.87879 0.5V4.37879H0Z" fill="#3D3F4A"/>
<path d="M3.87879 0.5H7.75758V4.37879H3.87879V0.5Z" fill="#3D3F4A"/>
<path d="M7.75758 0.5H11.6364V4.37879H7.75758V0.5Z" fill="#3D3F4A"/>
<path d="M11.6364 0.5H15.5152V4.37879H11.6364V0.5Z" fill="#3D3F4A"/>
<path d="M15.5152 0.5H19.3939V4.37879H15.5152V0.5Z" fill="#3D3F4A"/>
<path d="M19.3939 0.5H23.2727V4.37879H19.3939V0.5Z" fill="#3D3F4A"/>
<path d="M23.2727 0.5C24.3014 0.5 25.288 0.908657 26.0154 1.63607C26.7429 2.36348 27.1515 3.35007 27.1515 4.37879H23.2727V0.5Z" fill="#3D3F4A"/>
<path d="M42.6667 2.43939C42.6667 1.92503 42.871 1.43174 43.2347 1.06804C43.5984 0.704328 44.0917 0.5 44.6061 0.5C45.1204 0.5 45.6137 0.704328 45.9774 1.06804C46.3411 1.43174 46.5455 1.92503 46.5455 2.43939V4.37879H42.6667V2.43939Z" fill="#3D3F4A"/>
<path d="M50.4242 2.43939C50.4242 1.92503 50.6286 1.43174 50.9923 1.06804C51.356 0.704328 51.8493 0.5 52.3636 0.5C52.878 0.5 53.3713 0.704328 53.735 1.06804C54.0987 1.43174 54.303 1.92503 54.303 2.43939V4.37879H50.4242V2.43939Z" fill="#3D3F4A"/>
<path d="M58.1818 4.37879C58.1818 3.35007 58.5905 2.36348 59.3179 1.63607C60.0453 0.908657 61.0319 0.5 62.0606 0.5V4.37879H58.1818Z" fill="#3D3F4A"/>
<path d="M62.0606 0.5C63.0893 0.5 64.0759 0.908657 64.8033 1.63607C65.5307 2.36348 65.9394 3.35007 65.9394 4.37879H62.0606V0.5Z" fill="#3D3F4A"/>
<path d="M71.7576 0.5C72.2719 0.5 72.7652 0.704328 73.1289 1.06804C73.4927 1.43174 73.697 1.92503 73.697 2.43939C73.697 2.95375 73.4927 3.44705 73.1289 3.81075C72.7652 4.17446 72.2719 4.37879 71.7576 4.37879C71.2432 4.37879 70.7499 4.17446 70.3862 3.81075C70.0225 3.44705 69.8182 2.95375 69.8182 2.43939C69.8182 1.92503 70.0225 1.43174 70.3862 1.06804C70.7499 0.704328 71.2432 0.5 71.7576 0.5Z" fill="#3D3F4A"/>
<path d="M81.4546 4.37879C81.4546 3.35007 81.8632 2.36348 82.5906 1.63607C83.318 0.908657 84.3046 0.5 85.3333 0.5V4.37879H81.4546Z" fill="#3D3F4A"/>
<path d="M87.2727 0.5C87.7871 0.5 88.2804 0.704328 88.6441 1.06804C89.0078 1.43174 89.2121 1.92503 89.2121 2.43939C89.2121 2.95375 89.0078 3.44705 88.6441 3.81075C88.2804 4.17446 87.7871 4.37879 87.2727 4.37879H85.3333V0.5H87.2727Z" fill="#3D3F4A"/>
<path d="M93.0909 2.43939C93.0909 1.92503 93.2952 1.43174 93.659 1.06804C94.0227 0.704328 94.5159 0.5 95.0303 0.5C95.5447 0.5 96.038 0.704328 96.4017 1.06804C96.7654 1.43174 96.9697 1.92503 96.9697 2.43939V4.37879H93.0909V2.43939Z" fill="#3D3F4A"/>
<path d="M100.848 4.37879C100.848 3.35007 101.257 2.36348 101.985 1.63607C102.712 0.908657 103.699 0.5 104.727 0.5V4.37879H100.848Z" fill="#3D3F4A"/>
<path d="M104.727 0.5H108.606V4.37879H104.727V0.5Z" fill="#3D3F4A"/>
<path d="M108.606 0.5H112.485V4.37879H108.606V0.5Z" fill="#3D3F4A"/>
<path d="M112.485 0.5H116.364V4.37879H112.485V0.5Z" fill="#3D3F4A"/>
<path d="M116.364 0.5H120.242V4.37879H116.364V0.5Z" fill="#3D3F4A"/>
<path d="M120.242 0.5H124.121V4.37879H120.242V0.5Z" fill="#3D3F4A"/>
<path d="M124.121 0.5C125.15 0.5 126.137 0.908657 126.864 1.63607C127.591 2.36348 128 3.35007 128 4.37879H124.121V0.5Z" fill="#3D3F4A"/>
<path d="M0 4.37879H3.87879V8.25758H0V4.37879Z" fill="#3D3F4A"/>
<path d="M23.2727 4.37879H27.1515V8.25758H23.2727V4.37879Z" fill="#3D3F4A"/>
<path d="M36.8485 4.37879C36.3341 4.37879 35.8408 4.58312 35.4771 4.94682C35.1134 5.31053 34.9091 5.80382 34.9091 6.31818C34.9091 6.83254 35.1134 7.32583 35.4771 7.68954C35.8408 8.05325 36.3341 8.25758 36.8485 8.25758H38.7879V4.37879H36.8485Z" fill="#3D3F4A"/>
<path d="M38.7879 4.37879H42.6667V8.25758H38.7879V4.37879Z" fill="#3D3F4A"/>
<path d="M42.6667 4.37879H46.5455V8.25758H42.6667V4.37879Z" fill="#3D3F4A"/>
<path d="M50.4242 4.37879C50.4242 5.40751 50.8329 6.39409 51.5603 7.12151C52.2877 7.84892 53.2743 8.25758 54.303 8.25758V4.37879H50.4242Z" fill="#3D3F4A"/>
<path d="M54.303 4.37879H58.1818V8.25758H54.303V4.37879Z" fill="#3D3F4A"/>
<path d="M58.1818 4.37879H62.0606V8.25758H58.1818V4.37879Z" fill="#3D3F4A"/>
<path d="M62.0606 4.37879H65.9394V8.25758H62.0606V4.37879Z" fill="#3D3F4A"/>
<path d="M65.9394 4.37879C66.9681 4.37879 67.9547 4.78745 68.6821 5.51486C69.4095 6.24227 69.8182 7.22886 69.8182 8.25758H65.9394V4.37879Z" fill="#3D3F4A"/>
<path d="M73.697 8.25758C73.697 7.22886 74.1056 6.24227 74.833 5.51486C75.5605 4.78745 76.547 4.37879 77.5758 4.37879V8.25758H73.697Z" fill="#3D3F4A"/>
<path d="M77.5758 4.37879H81.4546V8.25758H77.5758V4.37879Z" fill="#3D3F4A"/>
<path d="M81.4546 4.37879H85.3333V8.25758H81.4546V4.37879Z" fill="#3D3F4A"/>
<path d="M93.0909 4.37879H96.9697V8.25758H93.0909V4.37879Z" fill="#3D3F4A"/>
<path d="M100.848 4.37879H104.727V8.25758H100.848V4.37879Z" fill="#3D3F4A"/>
<path d="M124.121 4.37879H128V8.25758H124.121V4.37879Z" fill="#3D3F4A"/>
<path d="M0 8.25758H3.87879V12.1364H0V8.25758Z" fill="#3D3F4A"/>
<path d="M7.75758 12.1364C7.75758 11.1076 8.16623 10.1211 8.89365 9.39365C9.62106 8.66623 10.6076 8.25758 11.6364 8.25758V12.1364H7.75758Z" fill="#3D3F4A"/>
<path d="M11.6364 8.25758H15.5152V12.1364H11.6364V8.25758Z" fill="#3D3F4A"/>
<path d="M15.5152 8.25758C16.5439 8.25758 17.5305 8.66623 18.2579 9.39365C18.9853 10.1211 19.3939 11.1076 19.3939 12.1364H15.5152V8.25758Z" fill="#3D3F4A"/>
<path d="M23.2727 8.25758H27.1515V12.1364H23.2727V8.25758Z" fill="#3D3F4A"/>
<path d="M31.0303 10.197C31.0303 9.68261 31.2346 9.18932 31.5983 8.82561C31.962 8.46191 32.4553 8.25758 32.9697 8.25758C33.4841 8.25758 33.9774 8.46191 34.3411 8.82561C34.7048 9.18932 34.9091 9.68261 34.9091 10.197V12.1364H31.0303V10.197Z" fill="#3D3F4A"/>
<path d="M42.6667 8.25758C42.6667 9.28629 43.0753 10.2729 43.8027 11.0003C44.5302 11.7277 45.5167 12.1364 46.5455 12.1364V8.25758H42.6667Z" fill="#3D3F4A"/>
<path d="M46.5455 8.25758C47.5742 8.25758 48.5608 8.66623 49.2882 9.39365C50.0156 10.1211 50.4242 11.1076 50.4242 12.1364H46.5455V8.25758Z" fill="#3D3F4A"/>
<path d="M54.303 10.197C54.303 10.7113 54.5074 11.2046 54.8711 11.5683C55.2348 11.932 55.7281 12.1364 56.2424 12.1364C56.7568 12.1364 57.2501 11.932 57.6138 11.5683C57.9775 11.2046 58.1818 10.7113 58.1818 10.197V8.25758H54.303V10.197Z" fill="#3D3F4A"/>
<path d="M65.9394 10.197C65.9394 10.7113 66.1437 11.2046 66.5074 11.5683C66.8711 11.932 67.3644 12.1364 67.8788 12.1364C68.3932 12.1364 68.8864 11.932 69.2502 11.5683C69.6139 11.2046 69.8182 10.7113 69.8182 10.197V8.25758H65.9394V10.197Z" fill="#3D3F4A"/>
<path d="M73.697 10.197C73.697 10.7113 73.9013 11.2046 74.265 11.5683C74.6287 11.932 75.122 12.1364 75.6364 12.1364C76.1507 12.1364 76.644 11.932 77.0077 11.5683C77.3714 11.2046 77.5758 10.7113 77.5758 10.197V8.25758H73.697V10.197Z" fill="#3D3F4A"/>
<path d="M81.4546 8.25758H85.3333V12.1364H81.4546V8.25758Z" fill="#3D3F4A"/>
<path d="M89.2121 12.1364C89.2121 11.1076 89.6208 10.1211 90.3482 9.39365C91.0756 8.66623 92.0622 8.25758 93.0909 8.25758V12.1364H89.2121Z" fill="#3D3F4A"/>
<path d="M93.0909 8.25758H96.9697V12.1364H93.0909V8.25758Z" fill="#3D3F4A"/>
<path d="M100.848 8.25758H104.727V12.1364H100.848V8.25758Z" fill="#3D3F4A"/>
<path d="M108.606 12.1364C108.606 11.1076 109.015 10.1211 109.742 9.39365C110.47 8.66623 111.456 8.25758 112.485 8.25758V12.1364H108.606Z" fill="#3D3F4A"/>
<path d="M112.485 8.25758H116.364V12.1364H112.485V8.25758Z" fill="#3D3F4A"/>
<path d="M116.364 8.25758C117.392 8.25758 118.379 8.66623 119.106 9.39365C119.834 10.1211 120.242 11.1076 120.242 12.1364H116.364V8.25758Z" fill="#3D3F4A"/>
<path d="M124.121 8.25758H128V12.1364H124.121V8.25758Z" fill="#3D3F4A"/>
<path d="M0 12.1364H3.87879V16.0152H0V12.1364Z" fill="#3D3F4A"/>
<path d="M7.75758 12.1364H11.6364V16.0152H7.75758V12.1364Z" fill="#3D3F4A"/>
<path d="M11.6364 12.1364H15.5152V16.0152H11.6364V12.1364Z" fill="#3D3F4A"/>
<path d="M15.5152 12.1364H19.3939V16.0152H15.5152V12.1364Z" fill="#3D3F4A"/>
<path d="M23.2727 12.1364H27.1515V16.0152H23.2727V12.1364Z" fill="#3D3F4A"/>
<path d="M31.0303 14.0758C31.0303 14.5901 31.2346 15.0834 31.5983 15.4471C31.962 15.8108 32.4553 16.0152 32.9697 16.0152C33.4841 16.0152 33.9774 15.8108 34.3411 15.4471C34.7048 15.0834 34.9091 14.5901 34.9091 14.0758V12.1364H31.0303V14.0758Z" fill="#3D3F4A"/>
<path d="M40.7273 12.1364C41.2416 12.1364 41.7349 12.3407 42.0986 12.7044C42.4623 13.0681 42.6667 13.5614 42.6667 14.0758C42.6667 14.5901 42.4623 15.0834 42.0986 15.4471C41.7349 15.8108 41.2416 16.0152 40.7273 16.0152C40.2129 16.0152 39.7196 15.8108 39.3559 15.4471C38.9922 15.0834 38.7879 14.5901 38.7879 14.0758C38.7879 13.5614 38.9922 13.0681 39.3559 12.7044C39.7196 12.3407 40.2129 12.1364 40.7273 12.1364Z" fill="#3D3F4A"/>
<path d="M46.5455 12.1364H50.4242V16.0152H46.5455V12.1364Z" fill="#3D3F4A"/>
<path d="M50.4242 12.1364C51.453 12.1364 52.4395 12.545 53.167 13.2724C53.8944 13.9998 54.303 14.9864 54.303 16.0152H50.4242V12.1364Z" fill="#3D3F4A"/>
<path d="M60.1212 12.1364C60.6356 12.1364 61.1289 12.3407 61.4926 12.7044C61.8563 13.0681 62.0606 13.5614 62.0606 14.0758C62.0606 14.5901 61.8563 15.0834 61.4926 15.4471C61.1289 15.8108 60.6356 16.0152 60.1212 16.0152C59.6069 16.0152 59.1136 15.8108 58.7499 15.4471C58.3862 15.0834 58.1818 14.5901 58.1818 14.0758C58.1818 13.5614 58.3862 13.0681 58.7499 12.7044C59.1136 12.3407 59.6069 12.1364 60.1212 12.1364Z" fill="#3D3F4A"/>
<path d="M71.7576 12.1364C72.2719 12.1364 72.7652 12.3407 73.1289 12.7044C73.4927 13.0681 73.697 13.5614 73.697 14.0758C73.697 14.5901 73.4927 15.0834 73.1289 15.4471C72.7652 15.8108 72.2719 16.0152 71.7576 16.0152C71.2432 16.0152 70.7499 15.8108 70.3862 15.4471C70.0225 15.0834 69.8182 14.5901 69.8182 14.0758C69.8182 13.5614 70.0225 13.0681 70.3862 12.7044C70.7499 12.3407 71.2432 12.1364 71.7576 12.1364Z" fill="#3D3F4A"/>
<path d="M81.4546 14.0758C81.4546 14.5901 81.6589 15.0834 82.0226 15.4471C82.3863 15.8108 82.8796 16.0152 83.3939 16.0152C83.9083 16.0152 84.4016 15.8108 84.7653 15.4471C85.129 15.0834 85.3333 14.5901 85.3333 14.0758V12.1364H81.4546V14.0758Z" fill="#3D3F4A"/>
<path d="M89.2121 12.1364C89.2121 13.1651 89.6208 14.1517 90.3482 14.8791C91.0756 15.6065 92.0622 16.0152 93.0909 16.0152V12.1364H89.2121Z" fill="#3D3F4A"/>
<path d="M93.0909 16.0152C94.1196 16.0152 95.1062 15.6065 95.8336 14.8791C96.561 14.1517 96.9697 13.1651 96.9697 12.1364H93.0909V16.0152Z" fill="#3D3F4A"/>
<path d="M100.848 12.1364H104.727V16.0152H100.848V12.1364Z" fill="#3D3F4A"/>
<path d="M108.606 12.1364H112.485V16.0152H108.606V12.1364Z" fill="#3D3F4A"/>
<path d="M112.485 12.1364H116.364V16.0152H112.485V12.1364Z" fill="#3D3F4A"/>
<path d="M116.364 12.1364H120.242V16.0152H116.364V12.1364Z" fill="#3D3F4A"/>
<path d="M124.121 12.1364H128V16.0152H124.121V12.1364Z" fill="#3D3F4A"/>
<path d="M0 16.0152H3.87879V19.8939H0V16.0152Z" fill="#3D3F4A"/>
<path d="M7.75758 16.0152C7.75758 17.0439 8.16623 18.0305 8.89365 18.7579C9.62106 19.4853 10.6076 19.8939 11.6364 19.8939V16.0152H7.75758Z" fill="#3D3F4A"/>
<path d="M11.6364 16.0152H15.5152V19.8939H11.6364V16.0152Z" fill="#3D3F4A"/>
<path d="M15.5152 19.8939C16.5439 19.8939 17.5305 19.4853 18.2579 18.7579C18.9853 18.0305 19.3939 17.0439 19.3939 16.0152H15.5152V19.8939Z" fill="#3D3F4A"/>
<path d="M23.2727 16.0152H27.1515V19.8939H23.2727V16.0152Z" fill="#3D3F4A"/>
<path d="M34.9091 17.9545C34.9091 17.4402 35.1134 16.9469 35.4771 16.5832C35.8408 16.2195 36.3341 16.0152 36.8485 16.0152C37.3628 16.0152 37.8561 16.2195 38.2198 16.5832C38.5836 16.9469 38.7879 17.4402 38.7879 17.9545V19.8939H34.9091V17.9545Z" fill="#3D3F4A"/>
<path d="M46.5455 16.0152C46.5455 17.0439 46.9541 18.0305 47.6815 18.7579C48.4089 19.4853 49.3955 19.8939 50.4242 19.8939V16.0152H46.5455Z" fill="#3D3F4A"/>
<path d="M50.4242 19.8939C51.453 19.8939 52.4395 19.4853 53.167 18.7579C53.8944 18.0305 54.303 17.0439 54.303 16.0152H50.4242V19.8939Z" fill="#3D3F4A"/>
<path d="M62.0606 17.9545C62.0606 17.4402 62.2649 16.9469 62.6286 16.5832C62.9924 16.2195 63.4856 16.0152 64 16.0152C64.5144 16.0152 65.0077 16.2195 65.3714 16.5832C65.7351 16.9469 65.9394 17.4402 65.9394 17.9545V19.8939H62.0606V17.9545Z" fill="#3D3F4A"/>
<path d="M87.2727 16.0152C87.7871 16.0152 88.2804 16.2195 88.6441 16.5832C89.0078 16.9469 89.2121 17.4402 89.2121 17.9545C89.2121 18.4689 89.0078 18.9622 88.6441 19.3259C88.2804 19.6896 87.7871 19.8939 87.2727 19.8939C86.7584 19.8939 86.2651 19.6896 85.9014 19.3259C85.5377 18.9622 85.3333 18.4689 85.3333 17.9545C85.3333 17.4402 85.5377 16.9469 85.9014 16.5832C86.2651 16.2195 86.7584 16.0152 87.2727 16.0152Z" fill="#3D3F4A"/>
<path d="M100.848 16.0152H104.727V19.8939H100.848V16.0152Z" fill="#3D3F4A"/>
<path d="M108.606 16.0152C108.606 17.0439 109.015 18.0305 109.742 18.7579C110.47 19.4853 111.456 19.8939 112.485 19.8939V16.0152H108.606Z" fill="#3D3F4A"/>
<path d="M112.485 16.0152H116.364V19.8939H112.485V16.0152Z" fill="#3D3F4A"/>
<path d="M116.364 19.8939C117.392 19.8939 118.379 19.4853 119.106 18.7579C119.834 18.0305 120.242 17.0439 120.242 16.0152H116.364V19.8939Z" fill="#3D3F4A"/>
<path d="M124.121 16.0152H128V19.8939H124.121V16.0152Z" fill="#3D3F4A"/>
<path d="M0 19.8939H3.87879V23.7727H0V19.8939Z" fill="#3D3F4A"/>
<path d="M23.2727 19.8939H27.1515V23.7727H23.2727V19.8939Z" fill="#3D3F4A"/>
<path d="M34.9091 21.8333C34.9091 22.3477 35.1134 22.841 35.4771 23.2047C35.8408 23.5684 36.3341 23.7727 36.8485 23.7727C37.3628 23.7727 37.8561 23.5684 38.2198 23.2047C38.5836 22.841 38.7879 22.3477 38.7879 21.8333V19.8939H34.9091V21.8333Z" fill="#3D3F4A"/>
<path d="M44.6061 19.8939C45.1204 19.8939 45.6137 20.0983 45.9774 20.462C46.3411 20.8257 46.5455 21.319 46.5455 21.8333C46.5455 22.3477 46.3411 22.841 45.9774 23.2047C45.6137 23.5684 45.1204 23.7727 44.6061 23.7727C44.0917 23.7727 43.5984 23.5684 43.2347 23.2047C42.871 22.841 42.6667 22.3477 42.6667 21.8333C42.6667 21.319 42.871 20.8257 43.2347 20.462C43.5984 20.0983 44.0917 19.8939 44.6061 19.8939Z" fill="#3D3F4A"/>
<path d="M54.303 21.8333C54.303 21.319 54.5074 20.8257 54.8711 20.462C55.2348 20.0983 55.7281 19.8939 56.2424 19.8939C56.7568 19.8939 57.2501 20.0983 57.6138 20.462C57.9775 20.8257 58.1818 21.319 58.1818 21.8333V23.7727H54.303V21.8333Z" fill="#3D3F4A"/>
<path d="M62.0606 19.8939H65.9394V23.7727H62.0606V19.8939Z" fill="#3D3F4A"/>
<path d="M67.8788 19.8939C68.3932 19.8939 68.8864 20.0983 69.2502 20.462C69.6139 20.8257 69.8182 21.319 69.8182 21.8333C69.8182 22.3477 69.6139 22.841 69.2502 23.2047C68.8864 23.5684 68.3932 23.7727 67.8788 23.7727H65.9394V19.8939H67.8788Z" fill="#3D3F4A"/>
<path d="M75.6364 19.8939C76.1507 19.8939 76.644 20.0983 77.0077 20.462C77.3714 20.8257 77.5758 21.319 77.5758 21.8333C77.5758 22.3477 77.3714 22.841 77.0077 23.2047C76.644 23.5684 76.1507 23.7727 75.6364 23.7727C75.122 23.7727 74.6287 23.5684 74.265 23.2047C73.9013 22.841 73.697 22.3477 73.697 21.8333C73.697 21.319 73.9013 20.8257 74.265 20.462C74.6287 20.0983 75.122 19.8939 75.6364 19.8939Z" fill="#3D3F4A"/>
<path d="M83.3939 19.8939C83.9083 19.8939 84.4016 20.0983 84.7653 20.462C85.129 20.8257 85.3333 21.319 85.3333 21.8333C85.3333 22.3477 85.129 22.841 84.7653 23.2047C84.4016 23.5684 83.9083 23.7727 83.3939 23.7727C82.8796 23.7727 82.3863 23.5684 82.0226 23.2047C81.6589 22.841 81.4546 22.3477 81.4546 21.8333C81.4546 21.319 81.6589 20.8257 82.0226 20.462C82.3863 20.0983 82.8796 19.8939 83.3939 19.8939Z" fill="#3D3F4A"/>
<path d="M91.1515 19.8939C91.6659 19.8939 92.1592 20.0983 92.5229 20.462C92.8866 20.8257 93.0909 21.319 93.0909 21.8333C93.0909 22.3477 92.8866 22.841 92.5229 23.2047C92.1592 23.5684 91.6659 23.7727 91.1515 23.7727C90.6372 23.7727 90.1439 23.5684 89.7802 23.2047C89.4165 22.841 89.2121 22.3477 89.2121 21.8333C89.2121 21.319 89.4165 20.8257 89.7802 20.462C90.1439 20.0983 90.6372 19.8939 91.1515 19.8939Z" fill="#3D3F4A"/>
<path d="M100.848 19.8939H104.727V23.7727H100.848V19.8939Z" fill="#3D3F4A"/>
<path d="M124.121 19.8939H128V23.7727H124.121V19.8939Z" fill="#3D3F4A"/>
<path d="M0 23.7727C0 24.8014 0.408657 25.788 1.13607 26.5154C1.86348 27.2429 2.85007 27.6515 3.87879 27.6515V23.7727H0Z" fill="#3D3F4A"/>
<path d="M3.87879 23.7727H7.75758V27.6515H3.87879V23.7727Z" fill="#3D3F4A"/>
<path d="M7.75758 23.7727H11.6364V27.6515H7.75758V23.7727Z" fill="#3D3F4A"/>
<path d="M11.6364 23.7727H15.5152V27.6515H11.6364V23.7727Z" fill="#3D3F4A"/>
<path d="M15.5152 23.7727H19.3939V27.6515H15.5152V23.7727Z" fill="#3D3F4A"/>
<path d="M19.3939 23.7727H23.2727V27.6515H19.3939V23.7727Z" fill="#3D3F4A"/>
<path d="M23.2727 27.6515C24.3014 27.6515 25.288 27.2429 26.0154 26.5154C26.7429 25.788 27.1515 24.8014 27.1515 23.7727H23.2727V27.6515Z" fill="#3D3F4A"/>
<path d="M32.9697 23.7727C33.4841 23.7727 33.9774 23.9771 34.3411 24.3408C34.7048 24.7045 34.9091 25.1978 34.9091 25.7121C34.9091 26.2265 34.7048 26.7198 34.3411 27.0835C33.9774 27.4472 33.4841 27.6515 32.9697 27.6515C32.4553 27.6515 31.962 27.4472 31.5983 27.0835C31.2346 26.7198 31.0303 26.2265 31.0303 25.7121C31.0303 25.1978 31.2346 24.7045 31.5983 24.3408C31.962 23.9771 32.4553 23.7727 32.9697 23.7727Z" fill="#3D3F4A"/>
<path d="M40.7273 23.7727C41.2416 23.7727 41.7349 23.9771 42.0986 24.3408C42.4623 24.7045 42.6667 25.1978 42.6667 25.7121C42.6667 26.2265 42.4623 26.7198 42.0986 27.0835C41.7349 27.4472 41.2416 27.6515 40.7273 27.6515C40.2129 27.6515 39.7196 27.4472 39.3559 27.0835C38.9922 26.7198 38.7879 26.2265 38.7879 25.7121C38.7879 25.1978 38.9922 24.7045 39.3559 24.3408C39.7196 23.9771 40.2129 23.7727 40.7273 23.7727Z" fill="#3D3F4A"/>
<path d="M48.4849 23.7727C48.9992 23.7727 49.4925 23.9771 49.8562 24.3408C50.2199 24.7045 50.4242 25.1978 50.4242 25.7121C50.4242 26.2265 50.2199 26.7198 49.8562 27.0835C49.4925 27.4472 48.9992 27.6515 48.4849 27.6515C47.9705 27.6515 47.4772 27.4472 47.1135 27.0835C46.7498 26.7198 46.5455 26.2265 46.5455 25.7121C46.5455 25.1978 46.7498 24.7045 47.1135 24.3408C47.4772 23.9771 47.9705 23.7727 48.4849 23.7727Z" fill="#3D3F4A"/>
<path d="M54.303 23.7727H58.1818V27.6515H54.303V23.7727Z" fill="#3D3F4A"/>
<path d="M62.0606 25.7121C62.0606 26.2265 62.2649 26.7198 62.6286 27.0835C62.9924 27.4472 63.4856 27.6515 64 27.6515C64.5144 27.6515 65.0077 27.4472 65.3714 27.0835C65.7351 26.7198 65.9394 26.2265 65.9394 25.7121V23.7727H62.0606V25.7121Z" fill="#3D3F4A"/>
<path d="M71.7576 23.7727C72.2719 23.7727 72.7652 23.9771 73.1289 24.3408C73.4927 24.7045 73.697 25.1978 73.697 25.7121C73.697 26.2265 73.4927 26.7198 73.1289 27.0835C72.7652 27.4472 72.2719 27.6515 71.7576 27.6515C71.2432 27.6515 70.7499 27.4472 70.3862 27.0835C70.0225 26.7198 69.8182 26.2265 69.8182 25.7121C69.8182 25.1978 70.0225 24.7045 70.3862 24.3408C70.7499 23.9771 71.2432 23.7727 71.7576 23.7727Z" fill="#3D3F4A"/>
<path d="M79.5152 23.7727C80.0295 23.7727 80.5228 23.9771 80.8865 24.3408C81.2502 24.7045 81.4546 25.1978 81.4546 25.7121C81.4546 26.2265 81.2502 26.7198 80.8865 27.0835C80.5228 27.4472 80.0295 27.6515 79.5152 27.6515C79.0008 27.6515 78.5075 27.4472 78.1438 27.0835C77.7801 26.7198 77.5758 26.2265 77.5758 25.7121C77.5758 25.1978 77.7801 24.7045 78.1438 24.3408C78.5075 23.9771 79.0008 23.7727 79.5152 23.7727Z" fill="#3D3F4A"/>
<path d="M87.2727 23.7727C87.7871 23.7727 88.2804 23.9771 88.6441 24.3408C89.0078 24.7045 89.2121 25.1978 89.2121 25.7121C89.2121 26.2265 89.0078 26.7198 88.6441 27.0835C88.2804 27.4472 87.7871 27.6515 87.2727 27.6515C86.7584 27.6515 86.2651 27.4472 85.9014 27.0835C85.5377 26.7198 85.3333 26.2265 85.3333 25.7121C85.3333 25.1978 85.5377 24.7045 85.9014 24.3408C86.2651 23.9771 86.7584 23.7727 87.2727 23.7727Z" fill="#3D3F4A"/>
<path d="M93.0909 25.7121C93.0909 25.1978 93.2952 24.7045 93.659 24.3408C94.0227 23.9771 94.5159 23.7727 95.0303 23.7727C95.5447 23.7727 96.038 23.9771 96.4017 24.3408C96.7654 24.7045 96.9697 25.1978 96.9697 25.7121V27.6515H93.0909V25.7121Z" fill="#3D3F4A"/>
<path d="M100.848 23.7727C100.848 24.8014 101.257 25.788 101.985 26.5154C102.712 27.2429 103.699 27.6515 104.727 27.6515V23.7727H100.848Z" fill="#3D3F4A"/>
<path d="M104.727 23.7727H108.606V27.6515H104.727V23.7727Z" fill="#3D3F4A"/>
<path d="M108.606 23.7727H112.485V27.6515H108.606V23.7727Z" fill="#3D3F4A"/>
<path d="M112.485 23.7727H116.364V27.6515H112.485V23.7727Z" fill="#3D3F4A"/>
<path d="M116.364 23.7727H120.242V27.6515H116.364V23.7727Z" fill="#3D3F4A"/>
<path d="M120.242 23.7727H124.121V27.6515H120.242V23.7727Z" fill="#3D3F4A"/>
<path d="M124.121 27.6515C125.15 27.6515 126.137 27.2429 126.864 26.5154C127.591 25.788 128 24.8014 128 23.7727H124.121V27.6515Z" fill="#3D3F4A"/>
<path d="M34.9091 29.5909C34.9091 29.0766 35.1134 28.5833 35.4771 28.2196C35.8408 27.8558 36.3341 27.6515 36.8485 27.6515C37.3628 27.6515 37.8561 27.8558 38.2198 28.2196C38.5836 28.5833 38.7879 29.0766 38.7879 29.5909V31.5303H34.9091V29.5909Z" fill="#3D3F4A"/>
<path d="M54.303 29.5909C54.303 30.1053 54.5074 30.5986 54.8711 30.9623C55.2348 31.326 55.7281 31.5303 56.2424 31.5303C56.7568 31.5303 57.2501 31.326 57.6138 30.9623C57.9775 30.5986 58.1818 30.1053 58.1818 29.5909V27.6515H54.303V29.5909Z" fill="#3D3F4A"/>
<path d="M67.8788 27.6515C68.3932 27.6515 68.8864 27.8558 69.2502 28.2196C69.6139 28.5833 69.8182 29.0766 69.8182 29.5909C69.8182 30.1053 69.6139 30.5986 69.2502 30.9623C68.8864 31.326 68.3932 31.5303 67.8788 31.5303C67.3644 31.5303 66.8711 31.326 66.5074 30.9623C66.1437 30.5986 65.9394 30.1053 65.9394 29.5909C65.9394 29.0766 66.1437 28.5833 66.5074 28.2196C66.8711 27.8558 67.3644 27.6515 67.8788 27.6515Z" fill="#3D3F4A"/>
<path d="M73.697 29.5909C73.697 29.0766 73.9013 28.5833 74.265 28.2196C74.6287 27.8558 75.122 27.6515 75.6364 27.6515C76.1507 27.6515 76.644 27.8558 77.0077 28.2196C77.3714 28.5833 77.5758 29.0766 77.5758 29.5909V31.5303H73.697V29.5909Z" fill="#3D3F4A"/>
<path d="M93.0909 27.6515H96.9697V31.5303H93.0909V27.6515Z" fill="#3D3F4A"/>
<path d="M13.5758 31.5303C13.0614 31.5303 12.5681 31.7346 12.2044 32.0983C11.8407 32.462 11.6364 32.9553 11.6364 33.4697C11.6364 33.9841 11.8407 34.4774 12.2044 34.8411C12.5681 35.2048 13.0614 35.4091 13.5758 35.4091H15.5152V31.5303H13.5758Z" fill="#3D3F4A"/>
<path d="M17.4545 31.5303C17.9689 31.5303 18.4622 31.7346 18.8259 32.0983C19.1896 32.462 19.3939 32.9553 19.3939 33.4697C19.3939 33.9841 19.1896 34.4774 18.8259 34.8411C18.4622 35.2048 17.9689 35.4091 17.4545 35.4091H15.5152V31.5303H17.4545Z" fill="#3D3F4A"/>
<path d="M25.2121 31.5303C24.6978 31.5303 24.2045 31.7346 23.8408 32.0983C23.4771 32.462 23.2727 32.9553 23.2727 33.4697C23.2727 33.9841 23.4771 34.4774 23.8408 34.8411C24.2045 35.2048 24.6978 35.4091 25.2121 35.4091H27.1515V31.5303H25.2121Z" fill="#3D3F4A"/>
<path d="M27.1515 31.5303C28.1802 31.5303 29.1668 31.939 29.8942 32.6664C30.6216 33.3938 31.0303 34.3804 31.0303 35.4091H27.1515V31.5303Z" fill="#3D3F4A"/>
<path d="M34.9091 33.4697C34.9091 33.9841 35.1134 34.4774 35.4771 34.8411C35.8408 35.2048 36.3341 35.4091 36.8485 35.4091C37.3628 35.4091 37.8561 35.2048 38.2198 34.8411C38.5836 34.4774 38.7879 33.9841 38.7879 33.4697V31.5303H34.9091V33.4697Z" fill="#3D3F4A"/>
<path d="M73.697 31.5303H77.5758V35.4091H73.697V31.5303Z" fill="#3D3F4A"/>
<path d="M89.2121 35.4091C89.2121 34.3804 89.6208 33.3938 90.3482 32.6664C91.0756 31.939 92.0622 31.5303 93.0909 31.5303V35.4091H89.2121Z" fill="#3D3F4A"/>
<path d="M93.0909 31.5303H96.9697V35.4091H93.0909V31.5303Z" fill="#3D3F4A"/>
<path d="M112.485 35.4091C112.485 34.3804 112.894 33.3938 113.621 32.6664C114.348 31.939 115.335 31.5303 116.364 31.5303V35.4091H112.485Z" fill="#3D3F4A"/>
<path d="M116.364 31.5303C117.392 31.5303 118.379 31.939 119.106 32.6664C119.834 33.3938 120.242 34.3804 120.242 35.4091H116.364V31.5303Z" fill="#3D3F4A"/>
<path d="M0 39.2879C0 38.2592 0.408657 37.2726 1.13607 36.5452C1.86348 35.8178 2.85007 35.4091 3.87879 35.4091V39.2879H0Z" fill="#3D3F4A"/>
<path d="M3.87879 35.4091C4.90751 35.4091 5.89409 35.8178 6.62151 36.5452C7.34892 37.2726 7.75758 38.2592 7.75758 39.2879H3.87879V35.4091Z" fill="#3D3F4A"/>
<path d="M27.1515 35.4091H31.0303V39.2879H27.1515V35.4091Z" fill="#3D3F4A"/>
<path d="M44.6061 35.4091C44.0917 35.4091 43.5984 35.6134 43.2347 35.9771C42.871 36.3408 42.6667 36.8341 42.6667 37.3485C42.6667 37.8628 42.871 38.3561 43.2347 38.7198C43.5984 39.0836 44.0917 39.2879 44.6061 39.2879H46.5455V35.4091H44.6061Z" fill="#3D3F4A"/>
<path d="M46.5455 35.4091C47.5742 35.4091 48.5608 35.8178 49.2882 36.5452C50.0156 37.2726 50.4242 38.2592 50.4242 39.2879H46.5455V35.4091Z" fill="#3D3F4A"/>
<path d="M56.2424 35.4091C55.7281 35.4091 55.2348 35.6134 54.8711 35.9771C54.5074 36.3408 54.303 36.8341 54.303 37.3485C54.303 37.8628 54.5074 38.3561 54.8711 38.7198C55.2348 39.0836 55.7281 39.2879 56.2424 39.2879H58.1818V35.4091H56.2424Z" fill="#3D3F4A"/>
<path d="M58.1818 35.4091H62.0606V39.2879H58.1818V35.4091Z" fill="#3D3F4A"/>
<path d="M62.0606 35.4091H65.9394V39.2879H62.0606V35.4091Z" fill="#3D3F4A"/>
<path d="M67.8788 35.4091C68.3932 35.4091 68.8864 35.6134 69.2502 35.9771C69.6139 36.3408 69.8182 36.8341 69.8182 37.3485C69.8182 37.8628 69.6139 38.3561 69.2502 38.7198C68.8864 39.0836 68.3932 39.2879 67.8788 39.2879H65.9394V35.4091H67.8788Z" fill="#3D3F4A"/>
<path d="M73.697 37.3485C73.697 37.8628 73.9013 38.3561 74.265 38.7198C74.6287 39.0836 75.122 39.2879 75.6364 39.2879C76.1507 39.2879 76.644 39.0836 77.0077 38.7198C77.3714 38.3561 77.5758 37.8628 77.5758 37.3485V35.4091H73.697V37.3485Z" fill="#3D3F4A"/>
<path d="M83.3939 35.4091C82.8796 35.4091 82.3863 35.6134 82.0226 35.9771C81.6589 36.3408 81.4546 36.8341 81.4546 37.3485C81.4546 37.8628 81.6589 38.3561 82.0226 38.7198C82.3863 39.0836 82.8796 39.2879 83.3939 39.2879H85.3333V35.4091H83.3939Z" fill="#3D3F4A"/>
<path d="M85.3333 35.4091H89.2121V39.2879H85.3333V35.4091Z" fill="#3D3F4A"/>
<path d="M89.2121 35.4091H93.0909V39.2879H89.2121V35.4091Z" fill="#3D3F4A"/>
<path d="M93.0909 35.4091H96.9697V39.2879H93.0909V35.4091Z" fill="#3D3F4A"/>
<path d="M98.9091 35.4091C99.4235 35.4091 99.9167 35.6134 100.28 35.9771C100.644 36.3408 100.848 36.8341 100.848 37.3485C100.848 37.8628 100.644 38.3561 100.28 38.7198C99.9167 39.0836 99.4235 39.2879 98.9091 39.2879H96.9697V35.4091H98.9091Z" fill="#3D3F4A"/>
<path d="M104.727 39.2879C104.727 38.2592 105.136 37.2726 105.863 36.5452C106.591 35.8178 107.577 35.4091 108.606 35.4091V39.2879H104.727Z" fill="#3D3F4A"/>
<path d="M108.606 35.4091H112.485V39.2879H108.606V35.4091Z" fill="#3D3F4A"/>
<path d="M112.485 35.4091H116.364V39.2879H112.485V35.4091Z" fill="#3D3F4A"/>
<path d="M116.364 35.4091H120.242V39.2879H116.364V35.4091Z" fill="#3D3F4A"/>
<path d="M0 39.2879C0 40.3166 0.408657 41.3032 1.13607 42.0306C1.86348 42.758 2.85007 43.1667 3.87879 43.1667V39.2879H0Z" fill="#3D3F4A"/>
<path d="M3.87879 39.2879H7.75758V43.1667H3.87879V39.2879Z" fill="#3D3F4A"/>
<path d="M7.75758 39.2879H11.6364V43.1667H7.75758V39.2879Z" fill="#3D3F4A"/>
<path d="M11.6364 39.2879H15.5152V43.1667H11.6364V39.2879Z" fill="#3D3F4A"/>
<path d="M17.4545 39.2879C17.9689 39.2879 18.4622 39.4922 18.8259 39.8559C19.1896 40.2196 19.3939 40.7129 19.3939 41.2273C19.3939 41.7416 19.1896 42.2349 18.8259 42.5986C18.4622 42.9623 17.9689 43.1667 17.4545 43.1667H15.5152V39.2879H17.4545Z" fill="#3D3F4A"/>
<path d="M25.2121 39.2879C24.6978 39.2879 24.2045 39.4922 23.8408 39.8559C23.4771 40.2196 23.2727 40.7129 23.2727 41.2273C23.2727 41.7416 23.4771 42.2349 23.8408 42.5986C24.2045 42.9623 24.6978 43.1667 25.2121 43.1667H27.1515V39.2879H25.2121Z" fill="#3D3F4A"/>
<path d="M27.1515 39.2879H31.0303V43.1667H27.1515V39.2879Z" fill="#3D3F4A"/>
<path d="M31.0303 39.2879H34.9091V43.1667H31.0303V39.2879Z" fill="#3D3F4A"/>
<path d="M34.9091 39.2879H38.7879V43.1667H34.9091V39.2879Z" fill="#3D3F4A"/>
<path d="M38.7879 39.2879C39.8166 39.2879 40.8032 39.6965 41.5306 40.424C42.258 41.1514 42.6667 42.138 42.6667 43.1667H38.7879V39.2879Z" fill="#3D3F4A"/>
<path d="M46.5455 39.2879C46.5455 40.3166 46.9541 41.3032 47.6815 42.0306C48.4089 42.758 49.3955 43.1667 50.4242 43.1667V39.2879H46.5455Z" fill="#3D3F4A"/>
<path d="M52.3636 39.2879C52.878 39.2879 53.3713 39.4922 53.735 39.8559C54.0987 40.2196 54.303 40.7129 54.303 41.2273C54.303 41.7416 54.0987 42.2349 53.735 42.5986C53.3713 42.9623 52.878 43.1667 52.3636 43.1667H50.4242V39.2879H52.3636Z" fill="#3D3F4A"/>
<path d="M58.1818 41.2273C58.1818 41.7416 58.3862 42.2349 58.7499 42.5986C59.1136 42.9623 59.6069 43.1667 60.1212 43.1667C60.6356 43.1667 61.1289 42.9623 61.4926 42.5986C61.8563 42.2349 62.0606 41.7416 62.0606 41.2273V39.2879H58.1818V41.2273Z" fill="#3D3F4A"/>
<path d="M77.5758 41.2273C77.5758 40.7129 77.7801 40.2196 78.1438 39.8559C78.5075 39.4922 79.0008 39.2879 79.5152 39.2879C80.0295 39.2879 80.5228 39.4922 80.8865 39.8559C81.2502 40.2196 81.4546 40.7129 81.4546 41.2273V43.1667H77.5758V41.2273Z" fill="#3D3F4A"/>
<path d="M85.3333 39.2879C85.3333 40.3166 85.742 41.3032 86.4694 42.0306C87.1968 42.758 88.1834 43.1667 89.2121 43.1667V39.2879H85.3333Z" fill="#3D3F4A"/>
<path d="M89.2121 43.1667C90.2409 43.1667 91.2274 42.758 91.9548 42.0306C92.6823 41.3032 93.0909 40.3166 93.0909 39.2879H89.2121V43.1667Z" fill="#3D3F4A"/>
<path d="M104.727 39.2879H108.606V43.1667H104.727V39.2879Z" fill="#3D3F4A"/>
<path d="M112.485 39.2879C112.485 40.3166 112.894 41.3032 113.621 42.0306C114.348 42.758 115.335 43.1667 116.364 43.1667V39.2879H112.485Z" fill="#3D3F4A"/>
<path d="M116.364 39.2879H120.242V43.1667H116.364V39.2879Z" fill="#3D3F4A"/>
<path d="M120.242 39.2879H124.121V43.1667H120.242V39.2879Z" fill="#3D3F4A"/>
<path d="M124.121 39.2879C125.15 39.2879 126.137 39.6965 126.864 40.424C127.591 41.1514 128 42.138 128 43.1667H124.121V39.2879Z" fill="#3D3F4A"/>
<path d="M3.87879 43.1667C3.87879 44.1954 4.28745 45.182 5.01486 45.9094C5.74227 46.6368 6.72886 47.0455 7.75758 47.0455V43.1667H3.87879Z" fill="#3D3F4A"/>
<path d="M7.75758 43.1667H11.6364V47.0455H7.75758V43.1667Z" fill="#3D3F4A"/>
<path d="M11.6364 47.0455C12.6651 47.0455 13.6517 46.6368 14.3791 45.9094C15.1065 45.182 15.5152 44.1954 15.5152 43.1667H11.6364V47.0455Z" fill="#3D3F4A"/>
<path d="M19.3939 45.1061C19.3939 44.5917 19.5983 44.0984 19.962 43.7347C20.3257 43.371 20.819 43.1667 21.3333 43.1667C21.8477 43.1667 22.341 43.371 22.7047 43.7347C23.0684 44.0984 23.2727 44.5917 23.2727 45.1061V47.0455H19.3939V45.1061Z" fill="#3D3F4A"/>
<path d="M27.1515 43.1667H31.0303V47.0455H27.1515V43.1667Z" fill="#3D3F4A"/>
<path d="M31.0303 43.1667H34.9091V47.0455H31.0303V43.1667Z" fill="#3D3F4A"/>
<path d="M34.9091 43.1667H38.7879V47.0455H34.9091V43.1667Z" fill="#3D3F4A"/>
<path d="M38.7879 43.1667H42.6667V47.0455H38.7879V43.1667Z" fill="#3D3F4A"/>
<path d="M44.6061 43.1667C45.1204 43.1667 45.6137 43.371 45.9774 43.7347C46.3411 44.0984 46.5455 44.5917 46.5455 45.1061C46.5455 45.6204 46.3411 46.1137 45.9774 46.4774C45.6137 46.8411 45.1204 47.0455 44.6061 47.0455H42.6667V43.1667H44.6061Z" fill="#3D3F4A"/>
<path d="M64 43.1667C63.4856 43.1667 62.9924 43.371 62.6286 43.7347C62.2649 44.0984 62.0606 44.5917 62.0606 45.1061C62.0606 45.6204 62.2649 46.1137 62.6286 46.4774C62.9924 46.8411 63.4856 47.0455 64 47.0455H65.9394V43.1667H64Z" fill="#3D3F4A"/>
<path d="M67.8788 43.1667C68.3932 43.1667 68.8864 43.371 69.2502 43.7347C69.6139 44.0984 69.8182 44.5917 69.8182 45.1061C69.8182 45.6204 69.6139 46.1137 69.2502 46.4774C68.8864 46.8411 68.3932 47.0455 67.8788 47.0455H65.9394V43.1667H67.8788Z" fill="#3D3F4A"/>
<path d="M75.6364 43.1667C75.122 43.1667 74.6287 43.371 74.265 43.7347C73.9013 44.0984 73.697 44.5917 73.697 45.1061C73.697 45.6204 73.9013 46.1137 74.265 46.4774C74.6287 46.8411 75.122 47.0455 75.6364 47.0455H77.5758V43.1667H75.6364Z" fill="#3D3F4A"/>
<path d="M77.5758 47.0455C78.6045 47.0455 79.5911 46.6368 80.3185 45.9094C81.0459 45.182 81.4546 44.1954 81.4546 43.1667H77.5758V47.0455Z" fill="#3D3F4A"/>
<path d="M98.9091 43.1667C99.4235 43.1667 99.9167 43.371 100.28 43.7347C100.644 44.0984 100.848 44.5917 100.848 45.1061C100.848 45.6204 100.644 46.1137 100.28 46.4774C99.9167 46.8411 99.4235 47.0455 98.9091 47.0455C98.3947 47.0455 97.9014 46.8411 97.5377 46.4774C97.174 46.1137 96.9697 45.6204 96.9697 45.1061C96.9697 44.5917 97.174 44.0984 97.5377 43.7347C97.9014 43.371 98.3947 43.1667 98.9091 43.1667Z" fill="#3D3F4A"/>
<path d="M104.727 43.1667C104.727 44.1954 105.136 45.182 105.863 45.9094C106.591 46.6368 107.577 47.0455 108.606 47.0455V43.1667H104.727Z" fill="#3D3F4A"/>
<path d="M110.545 43.1667C111.06 43.1667 111.553 43.371 111.917 43.7347C112.281 44.0984 112.485 44.5917 112.485 45.1061C112.485 45.6204 112.281 46.1137 111.917 46.4774C111.553 46.8411 111.06 47.0455 110.545 47.0455H108.606V43.1667H110.545Z" fill="#3D3F4A"/>
<path d="M116.364 45.1061C116.364 45.6204 116.568 46.1137 116.932 46.4774C117.295 46.8411 117.789 47.0455 118.303 47.0455C118.817 47.0455 119.311 46.8411 119.674 46.4774C120.038 46.1137 120.242 45.6204 120.242 45.1061V43.1667H116.364V45.1061Z" fill="#3D3F4A"/>
<path d="M124.121 43.1667H128V47.0455H124.121V43.1667Z" fill="#3D3F4A"/>
<path d="M17.4545 47.0455C16.9402 47.0455 16.4469 47.2498 16.0832 47.6135C15.7195 47.9772 15.5152 48.4705 15.5152 48.9849C15.5152 49.4992 15.7195 49.9925 16.0832 50.3562C16.4469 50.7199 16.9402 50.9242 17.4545 50.9242H19.3939V47.0455H17.4545Z" fill="#3D3F4A"/>
<path d="M19.3939 47.0455H23.2727V50.9242H19.3939V47.0455Z" fill="#3D3F4A"/>
<path d="M23.2727 47.0455H27.1515V50.9242H23.2727V47.0455Z" fill="#3D3F4A"/>
<path d="M27.1515 47.0455H31.0303V50.9242H27.1515V47.0455Z" fill="#3D3F4A"/>
<path d="M31.0303 47.0455H34.9091V50.9242H31.0303V47.0455Z" fill="#3D3F4A"/>
<path d="M34.9091 47.0455H38.7879V50.9242H34.9091V47.0455Z" fill="#3D3F4A"/>
<path d="M38.7879 50.9242C39.8166 50.9242 40.8032 50.5156 41.5306 49.7882C42.258 49.0608 42.6667 48.0742 42.6667 47.0455H38.7879V50.9242Z" fill="#3D3F4A"/>
<path d="M95.0303 47.0455C95.5447 47.0455 96.038 47.2498 96.4017 47.6135C96.7654 47.9772 96.9697 48.4705 96.9697 48.9849C96.9697 49.4992 96.7654 49.9925 96.4017 50.3562C96.038 50.7199 95.5447 50.9242 95.0303 50.9242C94.5159 50.9242 94.0227 50.7199 93.659 50.3562C93.2952 49.9925 93.0909 49.4992 93.0909 48.9849C93.0909 48.4705 93.2952 47.9772 93.659 47.6135C94.0227 47.2498 94.5159 47.0455 95.0303 47.0455Z" fill="#3D3F4A"/>
<path d="M102.788 47.0455C103.302 47.0455 103.796 47.2498 104.159 47.6135C104.523 47.9772 104.727 48.4705 104.727 48.9849C104.727 49.4992 104.523 49.9925 104.159 50.3562C103.796 50.7199 103.302 50.9242 102.788 50.9242C102.274 50.9242 101.78 50.7199 101.417 50.3562C101.053 49.9925 100.848 49.4992 100.848 48.9849C100.848 48.4705 101.053 47.9772 101.417 47.6135C101.78 47.2498 102.274 47.0455 102.788 47.0455Z" fill="#3D3F4A"/>
<path d="M112.485 48.9849C112.485 48.4705 112.689 47.9772 113.053 47.6135C113.417 47.2498 113.91 47.0455 114.424 47.0455C114.939 47.0455 115.432 47.2498 115.796 47.6135C116.159 47.9772 116.364 48.4705 116.364 48.9849V50.9242H112.485V48.9849Z" fill="#3D3F4A"/>
<path d="M120.242 50.9242C120.242 49.8955 120.651 48.9089 121.379 48.1815C122.106 47.4541 123.093 47.0455 124.121 47.0455V50.9242H120.242Z" fill="#3D3F4A"/>
<path d="M124.121 50.9242C125.15 50.9242 126.137 50.5156 126.864 49.7882C127.591 49.0608 128 48.0742 128 47.0455H124.121V50.9242Z" fill="#3D3F4A"/>
<path d="M5.81818 50.9242C5.30382 50.9242 4.81053 51.1286 4.44682 51.4923C4.08312 51.856 3.87879 52.3493 3.87879 52.8636C3.87879 53.378 4.08312 53.8713 4.44682 54.235C4.81053 54.5987 5.30382 54.803 5.81818 54.803H7.75758V50.9242H5.81818Z" fill="#3D3F4A"/>
<path d="M9.69697 50.9242C10.2113 50.9242 10.7046 51.1286 11.0683 51.4923C11.432 51.856 11.6364 52.3493 11.6364 52.8636C11.6364 53.378 11.432 53.8713 11.0683 54.235C10.7046 54.5987 10.2113 54.803 9.69697 54.803H7.75758V50.9242H9.69697Z" fill="#3D3F4A"/>
<path d="M19.3939 50.9242H23.2727V54.803H19.3939V50.9242Z" fill="#3D3F4A"/>
<path d="M27.1515 50.9242H31.0303V54.803H27.1515V50.9242Z" fill="#3D3F4A"/>
<path d="M34.9091 52.8636C34.9091 53.378 35.1134 53.8713 35.4771 54.235C35.8408 54.5987 36.3341 54.803 36.8485 54.803C37.3628 54.803 37.8561 54.5987 38.2198 54.235C38.5836 53.8713 38.7879 53.378 38.7879 52.8636V50.9242H34.9091V52.8636Z" fill="#3D3F4A"/>
<path d="M42.6667 52.8636C42.6667 52.3493 42.871 51.856 43.2347 51.4923C43.5984 51.1286 44.0917 50.9242 44.6061 50.9242C45.1204 50.9242 45.6137 51.1286 45.9774 51.4923C46.3411 51.856 46.5455 52.3493 46.5455 52.8636V54.803H42.6667V52.8636Z" fill="#3D3F4A"/>
<path d="M83.3939 50.9242C82.8796 50.9242 82.3863 51.1286 82.0226 51.4923C81.6589 51.856 81.4546 52.3493 81.4546 52.8636C81.4546 53.378 81.6589 53.8713 82.0226 54.235C82.3863 54.5987 82.8796 54.803 83.3939 54.803H85.3333V50.9242H83.3939Z" fill="#3D3F4A"/>
<path d="M85.3333 50.9242H89.2121V54.803H85.3333V50.9242Z" fill="#3D3F4A"/>
<path d="M91.1515 50.9242C91.6659 50.9242 92.1592 51.1286 92.5229 51.4923C92.8866 51.856 93.0909 52.3493 93.0909 52.8636C93.0909 53.378 92.8866 53.8713 92.5229 54.235C92.1592 54.5987 91.6659 54.803 91.1515 54.803H89.2121V50.9242H91.1515Z" fill="#3D3F4A"/>
<path d="M104.727 52.8636C104.727 52.3493 104.932 51.856 105.295 51.4923C105.659 51.1286 106.152 50.9242 106.667 50.9242C107.181 50.9242 107.674 51.1286 108.038 51.4923C108.402 51.856 108.606 52.3493 108.606 52.8636V54.803H104.727V52.8636Z" fill="#3D3F4A"/>
<path d="M112.485 50.9242H116.364V54.803H112.485V50.9242Z" fill="#3D3F4A"/>
<path d="M120.242 52.8636C120.242 53.378 120.447 53.8713 120.81 54.235C121.174 54.5987 121.667 54.803 122.182 54.803C122.696 54.803 123.189 54.5987 123.553 54.235C123.917 53.8713 124.121 53.378 124.121 52.8636V50.9242H120.242V52.8636Z" fill="#3D3F4A"/>
<path d="M1.93939 54.803C2.45375 54.803 2.94705 55.0074 3.31075 55.3711C3.67446 55.7348 3.87879 56.2281 3.87879 56.7424C3.87879 57.2568 3.67446 57.7501 3.31075 58.1138C2.94705 58.4775 2.45375 58.6818 1.93939 58.6818C1.42503 58.6818 0.931742 58.4775 0.568035 58.1138C0.204328 57.7501 0 57.2568 0 56.7424C0 56.2281 0.204328 55.7348 0.568035 55.3711C0.931742 55.0074 1.42503 54.803 1.93939 54.803Z" fill="#3D3F4A"/>
<path d="M19.3939 54.803C19.3939 55.8318 19.8026 56.8183 20.53 57.5457C21.2574 58.2732 22.244 58.6818 23.2727 58.6818V54.803H19.3939Z" fill="#3D3F4A"/>
<path d="M23.2727 54.803H27.1515V58.6818H23.2727V54.803Z" fill="#3D3F4A"/>
<path d="M27.1515 54.803H31.0303V58.6818H27.1515V54.803Z" fill="#3D3F4A"/>
<path d="M31.0303 54.803C32.059 54.803 33.0456 55.2117 33.773 55.9391C34.5004 56.6665 34.9091 57.6531 34.9091 58.6818H31.0303V54.803Z" fill="#3D3F4A"/>
<path d="M42.6667 54.803H46.5455V58.6818H42.6667V54.803Z" fill="#3D3F4A"/>
<path d="M96.9697 58.6818C96.9697 57.6531 97.3784 56.6665 98.1058 55.9391C98.8332 55.2117 99.8198 54.803 100.848 54.803V58.6818H96.9697Z" fill="#3D3F4A"/>
<path d="M100.848 54.803H104.727V58.6818H100.848V54.803Z" fill="#3D3F4A"/>
<path d="M104.727 54.803H108.606V58.6818H104.727V54.803Z" fill="#3D3F4A"/>
<path d="M108.606 54.803H112.485V58.6818H108.606V54.803Z" fill="#3D3F4A"/>
<path d="M112.485 54.803H116.364V58.6818H112.485V54.803Z" fill="#3D3F4A"/>
<path d="M15.5152 60.6212C15.5152 60.1069 15.7195 59.6136 16.0832 59.2499C16.4469 58.8862 16.9402 58.6818 17.4545 58.6818C17.9689 58.6818 18.4622 58.8862 18.8259 59.2499C19.1896 59.6136 19.3939 60.1069 19.3939 60.6212V62.5606H15.5152V60.6212Z" fill="#3D3F4A"/>
<path d="M31.0303 58.6818H34.9091V62.5606H31.0303V58.6818Z" fill="#3D3F4A"/>
<path d="M34.9091 58.6818C35.9378 58.6818 36.9244 59.0905 37.6518 59.8179C38.3792 60.5453 38.7879 61.5319 38.7879 62.5606H34.9091V58.6818Z" fill="#3D3F4A"/>
<path d="M42.6667 58.6818H46.5455V62.5606H42.6667V58.6818Z" fill="#3D3F4A"/>
<path d="M96.9697 58.6818H100.848V62.5606H96.9697V58.6818Z" fill="#3D3F4A"/>
<path d="M100.848 58.6818H104.727V62.5606H100.848V58.6818Z" fill="#3D3F4A"/>
<path d="M108.606 58.6818H112.485V62.5606H108.606V58.6818Z" fill="#3D3F4A"/>
<path d="M112.485 58.6818H116.364V62.5606H112.485V58.6818Z" fill="#3D3F4A"/>
<path d="M118.303 58.6818C118.817 58.6818 119.311 58.8862 119.674 59.2499C120.038 59.6136 120.242 60.1069 120.242 60.6212C120.242 61.1356 120.038 61.6289 119.674 61.9926C119.311 62.3563 118.817 62.5606 118.303 62.5606H116.364V58.6818H118.303Z" fill="#3D3F4A"/>
<path d="M3.87879 64.5C3.87879 63.9856 4.08312 63.4924 4.44682 63.1286C4.81053 62.7649 5.30382 62.5606 5.81818 62.5606C6.33254 62.5606 6.82583 62.7649 7.18954 63.1286C7.55325 63.4924 7.75758 63.9856 7.75758 64.5V66.4394H3.87879V64.5Z" fill="#3D3F4A"/>
<path d="M15.5152 62.5606C15.5152 63.5893 15.9238 64.5759 16.6512 65.3033C17.3786 66.0307 18.3652 66.4394 19.3939 66.4394V62.5606H15.5152Z" fill="#3D3F4A"/>
<path d="M19.3939 62.5606H23.2727V66.4394H19.3939V62.5606Z" fill="#3D3F4A"/>
<path d="M23.2727 62.5606H27.1515V66.4394H23.2727V62.5606Z" fill="#3D3F4A"/>
<path d="M27.1515 62.5606H31.0303V66.4394H27.1515V62.5606Z" fill="#3D3F4A"/>
<path d="M31.0303 62.5606H34.9091V66.4394H31.0303V62.5606Z" fill="#3D3F4A"/>
<path d="M34.9091 62.5606H38.7879V66.4394H34.9091V62.5606Z" fill="#3D3F4A"/>
<path d="M38.7879 62.5606H42.6667V66.4394H38.7879V62.5606Z" fill="#3D3F4A"/>
<path d="M42.6667 66.4394C43.6954 66.4394 44.682 66.0307 45.4094 65.3033C46.1368 64.5759 46.5455 63.5893 46.5455 62.5606H42.6667V66.4394Z" fill="#3D3F4A"/>
<path d="M91.1515 62.5606C91.6659 62.5606 92.1592 62.7649 92.5229 63.1286C92.8866 63.4924 93.0909 63.9856 93.0909 64.5C93.0909 65.0144 92.8866 65.5077 92.5229 65.8714C92.1592 66.2351 91.6659 66.4394 91.1515 66.4394C90.6372 66.4394 90.1439 66.2351 89.7802 65.8714C89.4165 65.5077 89.2121 65.0144 89.2121 64.5C89.2121 63.9856 89.4165 63.4924 89.7802 63.1286C90.1439 62.7649 90.6372 62.5606 91.1515 62.5606Z" fill="#3D3F4A"/>
<path d="M96.9697 62.5606C96.9697 63.5893 97.3784 64.5759 98.1058 65.3033C98.8332 66.0307 99.8198 66.4394 100.848 66.4394V62.5606H96.9697Z" fill="#3D3F4A"/>
<path d="M100.848 62.5606H104.727V66.4394H100.848V62.5606Z" fill="#3D3F4A"/>
<path d="M104.727 62.5606H108.606V66.4394H104.727V62.5606Z" fill="#3D3F4A"/>
<path d="M108.606 62.5606H112.485V66.4394H108.606V62.5606Z" fill="#3D3F4A"/>
<path d="M112.485 62.5606H116.364V66.4394H112.485V62.5606Z" fill="#3D3F4A"/>
<path d="M124.121 64.5C124.121 63.9856 124.326 63.4924 124.689 63.1286C125.053 62.7649 125.546 62.5606 126.061 62.5606C126.575 62.5606 127.068 62.7649 127.432 63.1286C127.796 63.4924 128 63.9856 128 64.5V66.4394H124.121V64.5Z" fill="#3D3F4A"/>
<path d="M3.87879 68.3788C3.87879 68.8932 4.08312 69.3864 4.44682 69.7502C4.81053 70.1139 5.30382 70.3182 5.81818 70.3182C6.33254 70.3182 6.82583 70.1139 7.18954 69.7502C7.55325 69.3864 7.75758 68.8932 7.75758 68.3788V66.4394H3.87879V68.3788Z" fill="#3D3F4A"/>
<path d="M27.1515 68.3788C27.1515 68.8932 27.3558 69.3864 27.7196 69.7502C28.0833 70.1139 28.5766 70.3182 29.0909 70.3182C29.6053 70.3182 30.0986 70.1139 30.4623 69.7502C30.826 69.3864 31.0303 68.8932 31.0303 68.3788V66.4394H27.1515V68.3788Z" fill="#3D3F4A"/>
<path d="M38.7879 68.3788C38.7879 68.8932 38.9922 69.3864 39.3559 69.7502C39.7196 70.1139 40.2129 70.3182 40.7273 70.3182C41.2416 70.3182 41.7349 70.1139 42.0986 69.7502C42.4623 69.3864 42.6667 68.8932 42.6667 68.3788V66.4394H38.7879V68.3788Z" fill="#3D3F4A"/>
<path d="M87.2727 66.4394C87.7871 66.4394 88.2804 66.6437 88.6441 67.0074C89.0078 67.3711 89.2121 67.8644 89.2121 68.3788C89.2121 68.8932 89.0078 69.3864 88.6441 69.7502C88.2804 70.1139 87.7871 70.3182 87.2727 70.3182C86.7584 70.3182 86.2651 70.1139 85.9014 69.7502C85.5377 69.3864 85.3333 68.8932 85.3333 68.3788C85.3333 67.8644 85.5377 67.3711 85.9014 67.0074C86.2651 66.6437 86.7584 66.4394 87.2727 66.4394Z" fill="#3D3F4A"/>
<path d="M95.0303 66.4394C95.5447 66.4394 96.038 66.6437 96.4017 67.0074C96.7654 67.3711 96.9697 67.8644 96.9697 68.3788C96.9697 68.8932 96.7654 69.3864 96.4017 69.7502C96.038 70.1139 95.5447 70.3182 95.0303 70.3182C94.5159 70.3182 94.0227 70.1139 93.659 69.7502C93.2952 69.3864 93.0909 68.8932 93.0909 68.3788C93.0909 67.8644 93.2952 67.3711 93.659 67.0074C94.0227 66.6437 94.5159 66.4394 95.0303 66.4394Z" fill="#3D3F4A"/>
<path d="M100.848 66.4394H104.727V70.3182H100.848V66.4394Z" fill="#3D3F4A"/>
<path d="M104.727 66.4394H108.606V70.3182H104.727V66.4394Z" fill="#3D3F4A"/>
<path d="M108.606 66.4394H112.485V70.3182H108.606V66.4394Z" fill="#3D3F4A"/>
<path d="M112.485 66.4394H116.364V70.3182H112.485V66.4394Z" fill="#3D3F4A"/>
<path d="M124.121 66.4394H128V70.3182H124.121V66.4394Z" fill="#3D3F4A"/>
<path d="M0 72.2576C0 71.7432 0.204328 71.2499 0.568035 70.8862C0.931742 70.5225 1.42503 70.3182 1.93939 70.3182C2.45375 70.3182 2.94705 70.5225 3.31075 70.8862C3.67446 71.2499 3.87879 71.7432 3.87879 72.2576V74.197H0V72.2576Z" fill="#3D3F4A"/>
<path d="M15.5152 72.2576C15.5152 71.7432 15.7195 71.2499 16.0832 70.8862C16.4469 70.5225 16.9402 70.3182 17.4545 70.3182C17.9689 70.3182 18.4622 70.5225 18.8259 70.8862C19.1896 71.2499 19.3939 71.7432 19.3939 72.2576V74.197H15.5152V72.2576Z" fill="#3D3F4A"/>
<path d="M25.2121 70.3182C25.7265 70.3182 26.2198 70.5225 26.5835 70.8862C26.9472 71.2499 27.1515 71.7432 27.1515 72.2576C27.1515 72.7719 26.9472 73.2652 26.5835 73.6289C26.2198 73.9927 25.7265 74.197 25.2121 74.197C24.6978 74.197 24.2045 73.9927 23.8408 73.6289C23.4771 73.2652 23.2727 72.7719 23.2727 72.2576C23.2727 71.7432 23.4771 71.2499 23.8408 70.8862C24.2045 70.5225 24.6978 70.3182 25.2121 70.3182Z" fill="#3D3F4A"/>
<path d="M32.9697 70.3182C33.4841 70.3182 33.9774 70.5225 34.3411 70.8862C34.7048 71.2499 34.9091 71.7432 34.9091 72.2576C34.9091 72.7719 34.7048 73.2652 34.3411 73.6289C33.9774 73.9927 33.4841 74.197 32.9697 74.197C32.4553 74.197 31.962 73.9927 31.5983 73.6289C31.2346 73.2652 31.0303 72.7719 31.0303 72.2576C31.0303 71.7432 31.2346 71.2499 31.5983 70.8862C31.962 70.5225 32.4553 70.3182 32.9697 70.3182Z" fill="#3D3F4A"/>
<path d="M83.3939 70.3182C83.9083 70.3182 84.4016 70.5225 84.7653 70.8862C85.129 71.2499 85.3333 71.7432 85.3333 72.2576C85.3333 72.7719 85.129 73.2652 84.7653 73.6289C84.4016 73.9927 83.9083 74.197 83.3939 74.197C82.8796 74.197 82.3863 73.9927 82.0226 73.6289C81.6589 73.2652 81.4546 72.7719 81.4546 72.2576C81.4546 71.7432 81.6589 71.2499 82.0226 70.8862C82.3863 70.5225 82.8796 70.3182 83.3939 70.3182Z" fill="#3D3F4A"/>
<path d="M89.2121 72.2576C89.2121 71.7432 89.4165 71.2499 89.7802 70.8862C90.1439 70.5225 90.6372 70.3182 91.1515 70.3182C91.6659 70.3182 92.1592 70.5225 92.5229 70.8862C92.8866 71.2499 93.0909 71.7432 93.0909 72.2576V74.197H89.2121V72.2576Z" fill="#3D3F4A"/>
<path d="M96.9697 74.197C96.9697 73.1683 97.3784 72.1817 98.1058 71.4543C98.8332 70.7269 99.8198 70.3182 100.848 70.3182V74.197H96.9697Z" fill="#3D3F4A"/>
<path d="M100.848 70.3182H104.727V74.197H100.848V70.3182Z" fill="#3D3F4A"/>
<path d="M108.606 70.3182H112.485V74.197H108.606V70.3182Z" fill="#3D3F4A"/>
<path d="M112.485 70.3182H116.364V74.197H112.485V70.3182Z" fill="#3D3F4A"/>
<path d="M116.364 70.3182H120.242V74.197H116.364V70.3182Z" fill="#3D3F4A"/>
<path d="M120.242 70.3182H124.121V74.197H120.242V70.3182Z" fill="#3D3F4A"/>
<path d="M124.121 74.197C125.15 74.197 126.137 73.7883 126.864 73.0609C127.591 72.3335 128 71.3469 128 70.3182H124.121V74.197Z" fill="#3D3F4A"/>
<path d="M0 76.1364C0 76.6507 0.204328 77.144 0.568035 77.5077C0.931742 77.8714 1.42503 78.0758 1.93939 78.0758C2.45375 78.0758 2.94705 77.8714 3.31075 77.5077C3.67446 77.144 3.87879 76.6507 3.87879 76.1364V74.197H0V76.1364Z" fill="#3D3F4A"/>
<path d="M7.75758 76.1364C7.75758 75.622 7.96191 75.1287 8.32561 74.765C8.68932 74.4013 9.18261 74.197 9.69697 74.197C10.2113 74.197 10.7046 74.4013 11.0683 74.765C11.432 75.1287 11.6364 75.622 11.6364 76.1364V78.0758H7.75758V76.1364Z" fill="#3D3F4A"/>
<path d="M15.5152 74.197C15.5152 75.2257 15.9238 76.2123 16.6512 76.9397C17.3786 77.6671 18.3652 78.0758 19.3939 78.0758V74.197H15.5152Z" fill="#3D3F4A"/>
<path d="M19.3939 74.197C20.4227 74.197 21.4092 74.6056 22.1367 75.333C22.8641 76.0605 23.2727 77.047 23.2727 78.0758H19.3939V74.197Z" fill="#3D3F4A"/>
<path d="M29.0909 74.197C29.6053 74.197 30.0986 74.4013 30.4623 74.765C30.826 75.1287 31.0303 75.622 31.0303 76.1364C31.0303 76.6507 30.826 77.144 30.4623 77.5077C30.0986 77.8714 29.6053 78.0758 29.0909 78.0758C28.5766 78.0758 28.0833 77.8714 27.7196 77.5077C27.3558 77.144 27.1515 76.6507 27.1515 76.1364C27.1515 75.622 27.3558 75.1287 27.7196 74.765C28.0833 74.4013 28.5766 74.197 29.0909 74.197Z" fill="#3D3F4A"/>
<path d="M34.9091 78.0758C34.9091 77.047 35.3178 76.0605 36.0452 75.333C36.7726 74.6056 37.7592 74.197 38.7879 74.197V78.0758H34.9091Z" fill="#3D3F4A"/>
<path d="M40.7273 74.197C41.2416 74.197 41.7349 74.4013 42.0986 74.765C42.4623 75.1287 42.6667 75.622 42.6667 76.1364C42.6667 76.6507 42.4623 77.144 42.0986 77.5077C41.7349 77.8714 41.2416 78.0758 40.7273 78.0758H38.7879V74.197H40.7273Z" fill="#3D3F4A"/>
<path d="M89.2121 74.197C89.2121 75.2257 89.6208 76.2123 90.3482 76.9397C91.0756 77.6671 92.0622 78.0758 93.0909 78.0758V74.197H89.2121Z" fill="#3D3F4A"/>
<path d="M93.0909 74.197H96.9697V78.0758H93.0909V74.197Z" fill="#3D3F4A"/>
<path d="M96.9697 74.197H100.848V78.0758H96.9697V74.197Z" fill="#3D3F4A"/>
<path d="M100.848 74.197H104.727V78.0758H100.848V74.197Z" fill="#3D3F4A"/>
<path d="M104.727 74.197H108.606V78.0758H104.727V74.197Z" fill="#3D3F4A"/>
<path d="M108.606 74.197H112.485V78.0758H108.606V74.197Z" fill="#3D3F4A"/>
<path d="M112.485 74.197H116.364V78.0758H112.485V74.197Z" fill="#3D3F4A"/>
<path d="M116.364 74.197H120.242V78.0758H116.364V74.197Z" fill="#3D3F4A"/>
<path d="M120.242 78.0758C121.271 78.0758 122.258 77.6671 122.985 76.9397C123.713 76.2123 124.121 75.2257 124.121 74.197H120.242V78.0758Z" fill="#3D3F4A"/>
<path d="M7.75758 78.0758H11.6364V81.9546H7.75758V78.0758Z" fill="#3D3F4A"/>
<path d="M19.3939 78.0758C19.3939 79.1045 19.8026 80.0911 20.53 80.8185C21.2574 81.5459 22.244 81.9546 23.2727 81.9546V78.0758H19.3939Z" fill="#3D3F4A"/>
<path d="M25.2121 78.0758C25.7265 78.0758 26.2198 78.2801 26.5835 78.6438C26.9472 79.0075 27.1515 79.5008 27.1515 80.0152C27.1515 80.5295 26.9472 81.0228 26.5835 81.3865C26.2198 81.7502 25.7265 81.9546 25.2121 81.9546H23.2727V78.0758H25.2121Z" fill="#3D3F4A"/>
<path d="M32.9697 78.0758C32.4553 78.0758 31.962 78.2801 31.5983 78.6438C31.2346 79.0075 31.0303 79.5008 31.0303 80.0152C31.0303 80.5295 31.2346 81.0228 31.5983 81.3865C31.962 81.7502 32.4553 81.9546 32.9697 81.9546H34.9091V78.0758H32.9697Z" fill="#3D3F4A"/>
<path d="M34.9091 78.0758H38.7879V81.9546H34.9091V78.0758Z" fill="#3D3F4A"/>
<path d="M85.3333 80.0152C85.3333 79.5008 85.5377 79.0075 85.9014 78.6438C86.2651 78.2801 86.7584 78.0758 87.2727 78.0758C87.7871 78.0758 88.2804 78.2801 88.6441 78.6438C89.0078 79.0075 89.2121 79.5008 89.2121 80.0152V81.9546H85.3333V80.0152Z" fill="#3D3F4A"/>
<path d="M93.0909 78.0758C93.0909 79.1045 93.4996 80.0911 94.227 80.8185C94.9544 81.5459 95.941 81.9546 96.9697 81.9546V78.0758H93.0909Z" fill="#3D3F4A"/>
<path d="M96.9697 81.9546C97.9984 81.9546 98.985 81.5459 99.7124 80.8185C100.44 80.0911 100.848 79.1045 100.848 78.0758H96.9697V81.9546Z" fill="#3D3F4A"/>
<path d="M104.727 78.0758H108.606V81.9546H104.727V78.0758Z" fill="#3D3F4A"/>
<path d="M112.485 78.0758H116.364V81.9546H112.485V78.0758Z" fill="#3D3F4A"/>
<path d="M126.061 78.0758C126.575 78.0758 127.068 78.2801 127.432 78.6438C127.796 79.0075 128 79.5008 128 80.0152C128 80.5295 127.796 81.0228 127.432 81.3865C127.068 81.7502 126.575 81.9546 126.061 81.9546C125.546 81.9546 125.053 81.7502 124.689 81.3865C124.326 81.0228 124.121 80.5295 124.121 80.0152C124.121 79.5008 124.326 79.0075 124.689 78.6438C125.053 78.2801 125.546 78.0758 126.061 78.0758Z" fill="#3D3F4A"/>
<path d="M0 83.8939C0 83.3796 0.204328 82.8863 0.568035 82.5226C0.931742 82.1589 1.42503 81.9546 1.93939 81.9546C2.45375 81.9546 2.94705 82.1589 3.31075 82.5226C3.67446 82.8863 3.87879 83.3796 3.87879 83.8939V85.8333H0V83.8939Z" fill="#3D3F4A"/>
<path d="M7.75758 81.9546C7.75758 82.9833 8.16623 83.9699 8.89365 84.6973C9.62106 85.4247 10.6076 85.8333 11.6364 85.8333V81.9546H7.75758Z" fill="#3D3F4A"/>
<path d="M11.6364 81.9546C12.6651 81.9546 13.6517 82.3632 14.3791 83.0906C15.1065 83.818 15.5152 84.8046 15.5152 85.8333H11.6364V81.9546Z" fill="#3D3F4A"/>
<path d="M34.9091 81.9546H38.7879V85.8333H34.9091V81.9546Z" fill="#3D3F4A"/>
<path d="M56.2424 81.9546C55.7281 81.9546 55.2348 82.1589 54.8711 82.5226C54.5074 82.8863 54.303 83.3796 54.303 83.8939C54.303 84.4083 54.5074 84.9016 54.8711 85.2653C55.2348 85.629 55.7281 85.8333 56.2424 85.8333H58.1818V81.9546H56.2424Z" fill="#3D3F4A"/>
<path d="M60.1212 81.9546C60.6356 81.9546 61.1289 82.1589 61.4926 82.5226C61.8563 82.8863 62.0606 83.3796 62.0606 83.8939C62.0606 84.4083 61.8563 84.9016 61.4926 85.2653C61.1289 85.629 60.6356 85.8333 60.1212 85.8333H58.1818V81.9546H60.1212Z" fill="#3D3F4A"/>
<path d="M75.6364 81.9546C76.1507 81.9546 76.644 82.1589 77.0077 82.5226C77.3714 82.8863 77.5758 83.3796 77.5758 83.8939C77.5758 84.4083 77.3714 84.9016 77.0077 85.2653C76.644 85.629 76.1507 85.8333 75.6364 85.8333C75.122 85.8333 74.6287 85.629 74.265 85.2653C73.9013 84.9016 73.697 84.4083 73.697 83.8939C73.697 83.3796 73.9013 82.8863 74.265 82.5226C74.6287 82.1589 75.122 81.9546 75.6364 81.9546Z" fill="#3D3F4A"/>
<path d="M81.4546 85.8333C81.4546 84.8046 81.8632 83.818 82.5906 83.0906C83.318 82.3632 84.3046 81.9546 85.3333 81.9546V85.8333H81.4546Z" fill="#3D3F4A"/>
<path d="M85.3333 81.9546H89.2121V85.8333H85.3333V81.9546Z" fill="#3D3F4A"/>
<path d="M89.2121 81.9546C90.2409 81.9546 91.2274 82.3632 91.9548 83.0906C92.6823 83.818 93.0909 84.8046 93.0909 85.8333H89.2121V81.9546Z" fill="#3D3F4A"/>
<path d="M104.727 81.9546H108.606V85.8333H104.727V81.9546Z" fill="#3D3F4A"/>
<path d="M108.606 81.9546H112.485V85.8333H108.606V81.9546Z" fill="#3D3F4A"/>
<path d="M112.485 81.9546H116.364V85.8333H112.485V81.9546Z" fill="#3D3F4A"/>
<path d="M116.364 81.9546C117.392 81.9546 118.379 82.3632 119.106 83.0906C119.834 83.818 120.242 84.8046 120.242 85.8333H116.364V81.9546Z" fill="#3D3F4A"/>
<path d="M0 85.8333H3.87879V89.7121H0V85.8333Z" fill="#3D3F4A"/>
<path d="M11.6364 85.8333H15.5152V89.7121H11.6364V85.8333Z" fill="#3D3F4A"/>
<path d="M21.3333 85.8333C20.819 85.8333 20.3257 86.0377 19.962 86.4014C19.5983 86.7651 19.3939 87.2584 19.3939 87.7727C19.3939 88.2871 19.5983 88.7804 19.962 89.1441C20.3257 89.5078 20.819 89.7121 21.3333 89.7121H23.2727V85.8333H21.3333Z" fill="#3D3F4A"/>
<path d="M25.2121 85.8333C25.7265 85.8333 26.2198 86.0377 26.5835 86.4014C26.9472 86.7651 27.1515 87.2584 27.1515 87.7727C27.1515 88.2871 26.9472 88.7804 26.5835 89.1441C26.2198 89.5078 25.7265 89.7121 25.2121 89.7121H23.2727V85.8333H25.2121Z" fill="#3D3F4A"/>
<path d="M31.0303 89.7121C31.0303 88.6834 31.439 87.6968 32.1664 86.9694C32.8938 86.242 33.8804 85.8333 34.9091 85.8333V89.7121H31.0303Z" fill="#3D3F4A"/>
<path d="M34.9091 85.8333H38.7879V89.7121H34.9091V85.8333Z" fill="#3D3F4A"/>
<path d="M64 85.8333C64.5144 85.8333 65.0077 86.0377 65.3714 86.4014C65.7351 86.7651 65.9394 87.2584 65.9394 87.7727C65.9394 88.2871 65.7351 88.7804 65.3714 89.1441C65.0077 89.5078 64.5144 89.7121 64 89.7121C63.4856 89.7121 62.9924 89.5078 62.6286 89.1441C62.2649 88.7804 62.0606 88.2871 62.0606 87.7727C62.0606 87.2584 62.2649 86.7651 62.6286 86.4014C62.9924 86.0377 63.4856 85.8333 64 85.8333Z" fill="#3D3F4A"/>
<path d="M79.5152 85.8333C79.0008 85.8333 78.5075 86.0377 78.1438 86.4014C77.7801 86.7651 77.5758 87.2584 77.5758 87.7727C77.5758 88.2871 77.7801 88.7804 78.1438 89.1441C78.5075 89.5078 79.0008 89.7121 79.5152 89.7121H81.4546V85.8333H79.5152Z" fill="#3D3F4A"/>
<path d="M81.4546 89.7121C82.4833 89.7121 83.4699 89.3035 84.1973 88.576C84.9247 87.8486 85.3333 86.8621 85.3333 85.8333H81.4546V89.7121Z" fill="#3D3F4A"/>
<path d="M89.2121 85.8333H93.0909V89.7121H89.2121V85.8333Z" fill="#3D3F4A"/>
<path d="M102.788 85.8333C102.274 85.8333 101.78 86.0377 101.417 86.4014C101.053 86.7651 100.848 87.2584 100.848 87.7727C100.848 88.2871 101.053 88.7804 101.417 89.1441C101.78 89.5078 102.274 89.7121 102.788 89.7121H104.727V85.8333H102.788Z" fill="#3D3F4A"/>
<path d="M104.727 85.8333H108.606V89.7121H104.727V85.8333Z" fill="#3D3F4A"/>
<path d="M116.364 85.8333H120.242V89.7121H116.364V85.8333Z" fill="#3D3F4A"/>
<path d="M120.242 85.8333H124.121V89.7121H120.242V85.8333Z" fill="#3D3F4A"/>
<path d="M124.121 85.8333C125.15 85.8333 126.137 86.242 126.864 86.9694C127.591 87.6968 128 88.6834 128 89.7121H124.121V85.8333Z" fill="#3D3F4A"/>
<path d="M0 89.7121H3.87879V93.5909H0V89.7121Z" fill="#3D3F4A"/>
<path d="M11.6364 89.7121C11.6364 90.7409 12.045 91.7274 12.7724 92.4548C13.4998 93.1823 14.4864 93.5909 15.5152 93.5909V89.7121H11.6364Z" fill="#3D3F4A"/>
<path d="M15.5152 89.7121C16.5439 89.7121 17.5305 90.1208 18.2579 90.8482C18.9853 91.5756 19.3939 92.5622 19.3939 93.5909H15.5152V89.7121Z" fill="#3D3F4A"/>
<path d="M27.1515 93.5909C27.1515 92.5622 27.5602 91.5756 28.2876 90.8482C29.015 90.1208 30.0016 89.7121 31.0303 89.7121V93.5909H27.1515Z" fill="#3D3F4A"/>
<path d="M31.0303 89.7121H34.9091V93.5909H31.0303V89.7121Z" fill="#3D3F4A"/>
<path d="M34.9091 89.7121H38.7879V93.5909H34.9091V89.7121Z" fill="#3D3F4A"/>
<path d="M40.7273 89.7121C41.2416 89.7121 41.7349 89.9165 42.0986 90.2802C42.4623 90.6439 42.6667 91.1372 42.6667 91.6515C42.6667 92.1659 42.4623 92.6592 42.0986 93.0229C41.7349 93.3866 41.2416 93.5909 40.7273 93.5909H38.7879V89.7121H40.7273Z" fill="#3D3F4A"/>
<path d="M56.2424 89.7121C56.7568 89.7121 57.2501 89.9165 57.6138 90.2802C57.9775 90.6439 58.1818 91.1372 58.1818 91.6515C58.1818 92.1659 57.9775 92.6592 57.6138 93.0229C57.2501 93.3866 56.7568 93.5909 56.2424 93.5909C55.7281 93.5909 55.2348 93.3866 54.8711 93.0229C54.5074 92.6592 54.303 92.1659 54.303 91.6515C54.303 91.1372 54.5074 90.6439 54.8711 90.2802C55.2348 89.9165 55.7281 89.7121 56.2424 89.7121Z" fill="#3D3F4A"/>
<path d="M65.9394 93.5909C65.9394 92.5622 66.3481 91.5756 67.0755 90.8482C67.8029 90.1208 68.7895 89.7121 69.8182 89.7121V93.5909H65.9394Z" fill="#3D3F4A"/>
<path d="M69.8182 89.7121H73.697V93.5909H69.8182V89.7121Z" fill="#3D3F4A"/>
<path d="M73.697 89.7121C74.7257 89.7121 75.7123 90.1208 76.4397 90.8482C77.1671 91.5756 77.5758 92.5622 77.5758 93.5909H73.697V89.7121Z" fill="#3D3F4A"/>
<path d="M89.2121 91.6515C89.2121 92.1659 89.4165 92.6592 89.7802 93.0229C90.1439 93.3866 90.6372 93.5909 91.1515 93.5909C91.6659 93.5909 92.1592 93.3866 92.5229 93.0229C92.8866 92.6592 93.0909 92.1659 93.0909 91.6515V89.7121H89.2121V91.6515Z" fill="#3D3F4A"/>
<path d="M104.727 89.7121H108.606V93.5909H104.727V89.7121Z" fill="#3D3F4A"/>
<path d="M108.606 89.7121C109.635 89.7121 110.621 90.1208 111.349 90.8482C112.076 91.5756 112.485 92.5622 112.485 93.5909H108.606V89.7121Z" fill="#3D3F4A"/>
<path d="M116.364 91.6515C116.364 92.1659 116.568 92.6592 116.932 93.0229C117.295 93.3866 117.789 93.5909 118.303 93.5909C118.817 93.5909 119.311 93.3866 119.674 93.0229C120.038 92.6592 120.242 92.1659 120.242 91.6515V89.7121H116.364V91.6515Z" fill="#3D3F4A"/>
<path d="M124.121 91.6515C124.121 92.1659 124.326 92.6592 124.689 93.0229C125.053 93.3866 125.546 93.5909 126.061 93.5909C126.575 93.5909 127.068 93.3866 127.432 93.0229C127.796 92.6592 128 92.1659 128 91.6515V89.7121H124.121V91.6515Z" fill="#3D3F4A"/>
<path d="M0 93.5909C0 94.6196 0.408657 95.6062 1.13607 96.3336C1.86348 97.061 2.85007 97.4697 3.87879 97.4697V93.5909H0Z" fill="#3D3F4A"/>
<path d="M3.87879 93.5909H7.75758V97.4697H3.87879V93.5909Z" fill="#3D3F4A"/>
<path d="M9.69697 93.5909C10.2113 93.5909 10.7046 93.7952 11.0683 94.159C11.432 94.5227 11.6364 95.0159 11.6364 95.5303C11.6364 96.0447 11.432 96.538 11.0683 96.9017C10.7046 97.2654 10.2113 97.4697 9.69697 97.4697H7.75758V93.5909H9.69697Z" fill="#3D3F4A"/>
<path d="M15.5152 93.5909C15.5152 94.6196 15.9238 95.6062 16.6512 96.3336C17.3786 97.061 18.3652 97.4697 19.3939 97.4697V93.5909H15.5152Z" fill="#3D3F4A"/>
<path d="M19.3939 93.5909H23.2727V97.4697H19.3939V93.5909Z" fill="#3D3F4A"/>
<path d="M23.2727 93.5909H27.1515V97.4697H23.2727V93.5909Z" fill="#3D3F4A"/>
<path d="M27.1515 97.4697C28.1802 97.4697 29.1668 97.061 29.8942 96.3336C30.6216 95.6062 31.0303 94.6196 31.0303 93.5909H27.1515V97.4697Z" fill="#3D3F4A"/>
<path d="M34.9091 95.5303C34.9091 96.0447 35.1134 96.538 35.4771 96.9017C35.8408 97.2654 36.3341 97.4697 36.8485 97.4697C37.3628 97.4697 37.8561 97.2654 38.2198 96.9017C38.5836 96.538 38.7879 96.0447 38.7879 95.5303V93.5909H34.9091V95.5303Z" fill="#3D3F4A"/>
<path d="M42.6667 97.4697C42.6667 96.441 43.0753 95.4544 43.8027 94.727C44.5302 93.9996 45.5167 93.5909 46.5455 93.5909V97.4697H42.6667Z" fill="#3D3F4A"/>
<path d="M46.5455 93.5909H50.4242V97.4697H46.5455V93.5909Z" fill="#3D3F4A"/>
<path d="M50.4242 93.5909C51.453 93.5909 52.4395 93.9996 53.167 94.727C53.8944 95.4544 54.303 96.441 54.303 97.4697H50.4242V93.5909Z" fill="#3D3F4A"/>
<path d="M60.1212 93.5909C59.6069 93.5909 59.1136 93.7952 58.7499 94.159C58.3862 94.5227 58.1818 95.0159 58.1818 95.5303C58.1818 96.0447 58.3862 96.538 58.7499 96.9017C59.1136 97.2654 59.6069 97.4697 60.1212 97.4697H62.0606V93.5909H60.1212Z" fill="#3D3F4A"/>
<path d="M62.0606 93.5909H65.9394V97.4697H62.0606V93.5909Z" fill="#3D3F4A"/>
<path d="M65.9394 93.5909H69.8182V97.4697H65.9394V93.5909Z" fill="#3D3F4A"/>
<path d="M73.697 93.5909C73.697 94.6196 74.1056 95.6062 74.833 96.3336C75.5605 97.061 76.547 97.4697 77.5758 97.4697V93.5909H73.697Z" fill="#3D3F4A"/>
<path d="M79.5152 93.5909C80.0295 93.5909 80.5228 93.7952 80.8865 94.159C81.2502 94.5227 81.4546 95.0159 81.4546 95.5303C81.4546 96.0447 81.2502 96.538 80.8865 96.9017C80.5228 97.2654 80.0295 97.4697 79.5152 97.4697H77.5758V93.5909H79.5152Z" fill="#3D3F4A"/>
<path d="M93.0909 97.4697C93.0909 96.441 93.4996 95.4544 94.227 94.727C94.9544 93.9996 95.941 93.5909 96.9697 93.5909V97.4697H93.0909Z" fill="#3D3F4A"/>
<path d="M96.9697 93.5909H100.848V97.4697H96.9697V93.5909Z" fill="#3D3F4A"/>
<path d="M100.848 93.5909H104.727V97.4697H100.848V93.5909Z" fill="#3D3F4A"/>
<path d="M104.727 93.5909H108.606V97.4697H104.727V93.5909Z" fill="#3D3F4A"/>
<path d="M108.606 93.5909H112.485V97.4697H108.606V93.5909Z" fill="#3D3F4A"/>
<path d="M114.424 93.5909C114.939 93.5909 115.432 93.7952 115.796 94.159C116.159 94.5227 116.364 95.0159 116.364 95.5303C116.364 96.0447 116.159 96.538 115.796 96.9017C115.432 97.2654 114.939 97.4697 114.424 97.4697H112.485V93.5909H114.424Z" fill="#3D3F4A"/>
<path d="M31.0303 99.4091C31.0303 98.8947 31.2346 98.4014 31.5983 98.0377C31.962 97.674 32.4553 97.4697 32.9697 97.4697C33.4841 97.4697 33.9774 97.674 34.3411 98.0377C34.7048 98.4014 34.9091 98.8947 34.9091 99.4091V101.348H31.0303V99.4091Z" fill="#3D3F4A"/>
<path d="M40.7273 97.4697C40.2129 97.4697 39.7196 97.674 39.3559 98.0377C38.9922 98.4014 38.7879 98.8947 38.7879 99.4091C38.7879 99.9235 38.9922 100.417 39.3559 100.78C39.7196 101.144 40.2129 101.348 40.7273 101.348H42.6667V97.4697H40.7273Z" fill="#3D3F4A"/>
<path d="M42.6667 97.4697H46.5455V101.348H42.6667V97.4697Z" fill="#3D3F4A"/>
<path d="M46.5455 97.4697H50.4242V101.348H46.5455V97.4697Z" fill="#3D3F4A"/>
<path d="M50.4242 101.348C51.453 101.348 52.4395 100.94 53.167 100.212C53.8944 99.485 54.303 98.4984 54.303 97.4697H50.4242V101.348Z" fill="#3D3F4A"/>
<path d="M65.9394 99.4091C65.9394 99.9235 66.1437 100.417 66.5074 100.78C66.8711 101.144 67.3644 101.348 67.8788 101.348C68.3932 101.348 68.8864 101.144 69.2502 100.78C69.6139 100.417 69.8182 99.9235 69.8182 99.4091V97.4697H65.9394V99.4091Z" fill="#3D3F4A"/>
<path d="M93.0909 97.4697H96.9697V101.348H93.0909V97.4697Z" fill="#3D3F4A"/>
<path d="M108.606 97.4697H112.485V101.348H108.606V97.4697Z" fill="#3D3F4A"/>
<path d="M0 105.227C0 104.199 0.408657 103.212 1.13607 102.485C1.86348 101.757 2.85007 101.348 3.87879 101.348V105.227H0Z" fill="#3D3F4A"/>
<path d="M3.87879 101.348H7.75758V105.227H3.87879V101.348Z" fill="#3D3F4A"/>
<path d="M7.75758 101.348H11.6364V105.227H7.75758V101.348Z" fill="#3D3F4A"/>
<path d="M11.6364 101.348H15.5152V105.227H11.6364V101.348Z" fill="#3D3F4A"/>
<path d="M15.5152 101.348H19.3939V105.227H15.5152V101.348Z" fill="#3D3F4A"/>
<path d="M19.3939 101.348H23.2727V105.227H19.3939V101.348Z" fill="#3D3F4A"/>
<path d="M23.2727 101.348C24.3014 101.348 25.288 101.757 26.0154 102.485C26.7429 103.212 27.1515 104.199 27.1515 105.227H23.2727V101.348Z" fill="#3D3F4A"/>
<path d="M31.0303 101.348C31.0303 102.377 31.439 103.364 32.1664 104.091C32.8938 104.819 33.8804 105.227 34.9091 105.227V101.348H31.0303Z" fill="#3D3F4A"/>
<path d="M34.9091 101.348C35.9378 101.348 36.9244 101.757 37.6518 102.485C38.3792 103.212 38.7879 104.199 38.7879 105.227H34.9091V101.348Z" fill="#3D3F4A"/>
<path d="M42.6667 101.348H46.5455V105.227H42.6667V101.348Z" fill="#3D3F4A"/>
<path d="M62.0606 103.288C62.0606 102.774 62.2649 102.28 62.6286 101.917C62.9924 101.553 63.4856 101.348 64 101.348C64.5144 101.348 65.0077 101.553 65.3714 101.917C65.7351 102.28 65.9394 102.774 65.9394 103.288V105.227H62.0606V103.288Z" fill="#3D3F4A"/>
<path d="M69.8182 105.227C69.8182 104.199 70.2269 103.212 70.9543 102.485C71.6817 101.757 72.6683 101.348 73.697 101.348V105.227H69.8182Z" fill="#3D3F4A"/>
<path d="M73.697 101.348C74.7257 101.348 75.7123 101.757 76.4397 102.485C77.1671 103.212 77.5758 104.199 77.5758 105.227H73.697V101.348Z" fill="#3D3F4A"/>
<path d="M87.2727 101.348C86.7584 101.348 86.2651 101.553 85.9014 101.917C85.5377 102.28 85.3333 102.774 85.3333 103.288C85.3333 103.802 85.5377 104.296 85.9014 104.659C86.2651 105.023 86.7584 105.227 87.2727 105.227H89.2121V101.348H87.2727Z" fill="#3D3F4A"/>
<path d="M89.2121 101.348H93.0909V105.227H89.2121V101.348Z" fill="#3D3F4A"/>
<path d="M93.0909 101.348H96.9697V105.227H93.0909V101.348Z" fill="#3D3F4A"/>
<path d="M102.788 101.348C103.302 101.348 103.796 101.553 104.159 101.917C104.523 102.28 104.727 102.774 104.727 103.288C104.727 103.802 104.523 104.296 104.159 104.659C103.796 105.023 103.302 105.227 102.788 105.227C102.274 105.227 101.78 105.023 101.417 104.659C101.053 104.296 100.848 103.802 100.848 103.288C100.848 102.774 101.053 102.28 101.417 101.917C101.78 101.553 102.274 101.348 102.788 101.348Z" fill="#3D3F4A"/>
<path d="M108.606 101.348H112.485V105.227H108.606V101.348Z" fill="#3D3F4A"/>
<path d="M112.485 101.348H116.364V105.227H112.485V101.348Z" fill="#3D3F4A"/>
<path d="M116.364 101.348C117.392 101.348 118.379 101.757 119.106 102.485C119.834 103.212 120.242 104.199 120.242 105.227H116.364V101.348Z" fill="#3D3F4A"/>
<path d="M0 105.227H3.87879V109.106H0V105.227Z" fill="#3D3F4A"/>
<path d="M23.2727 105.227H27.1515V109.106H23.2727V105.227Z" fill="#3D3F4A"/>
<path d="M34.9091 105.227C34.9091 106.256 35.3178 107.243 36.0452 107.97C36.7726 108.697 37.7592 109.106 38.7879 109.106V105.227H34.9091Z" fill="#3D3F4A"/>
<path d="M38.7879 105.227H42.6667V109.106H38.7879V105.227Z" fill="#3D3F4A"/>
<path d="M42.6667 105.227H46.5455V109.106H42.6667V105.227Z" fill="#3D3F4A"/>
<path d="M46.5455 105.227H50.4242V109.106H46.5455V105.227Z" fill="#3D3F4A"/>
<path d="M50.4242 105.227H54.303V109.106H50.4242V105.227Z" fill="#3D3F4A"/>
<path d="M54.303 105.227C55.3318 105.227 56.3183 105.636 57.0457 106.363C57.7732 107.091 58.1818 108.077 58.1818 109.106H54.303V105.227Z" fill="#3D3F4A"/>
<path d="M62.0606 105.227H65.9394V109.106H62.0606V105.227Z" fill="#3D3F4A"/>
<path d="M65.9394 105.227H69.8182V109.106H65.9394V105.227Z" fill="#3D3F4A"/>
<path d="M69.8182 105.227H73.697V109.106H69.8182V105.227Z" fill="#3D3F4A"/>
<path d="M73.697 105.227H77.5758V109.106H73.697V105.227Z" fill="#3D3F4A"/>
<path d="M77.5758 105.227C78.6045 105.227 79.5911 105.636 80.3185 106.363C81.0459 107.091 81.4546 108.077 81.4546 109.106H77.5758V105.227Z" fill="#3D3F4A"/>
<path d="M89.2121 105.227H93.0909V109.106H89.2121V105.227Z" fill="#3D3F4A"/>
<path d="M93.0909 105.227H96.9697V109.106H93.0909V105.227Z" fill="#3D3F4A"/>
<path d="M108.606 105.227H112.485V109.106H108.606V105.227Z" fill="#3D3F4A"/>
<path d="M112.485 105.227H116.364V109.106H112.485V105.227Z" fill="#3D3F4A"/>
<path d="M116.364 105.227H120.242V109.106H116.364V105.227Z" fill="#3D3F4A"/>
<path d="M120.242 105.227C121.271 105.227 122.258 105.636 122.985 106.363C123.713 107.091 124.121 108.077 124.121 109.106H120.242V105.227Z" fill="#3D3F4A"/>
<path d="M0 109.106H3.87879V112.985H0V109.106Z" fill="#3D3F4A"/>
<path d="M7.75758 112.985C7.75758 111.956 8.16623 110.97 8.89365 110.242C9.62106 109.515 10.6076 109.106 11.6364 109.106V112.985H7.75758Z" fill="#3D3F4A"/>
<path d="M11.6364 109.106H15.5152V112.985H11.6364V109.106Z" fill="#3D3F4A"/>
<path d="M15.5152 109.106C16.5439 109.106 17.5305 109.515 18.2579 110.242C18.9853 110.97 19.3939 111.956 19.3939 112.985H15.5152V109.106Z" fill="#3D3F4A"/>
<path d="M23.2727 109.106H27.1515V112.985H23.2727V109.106Z" fill="#3D3F4A"/>
<path d="M31.0303 111.045C31.0303 110.531 31.2346 110.038 31.5983 109.674C31.962 109.31 32.4553 109.106 32.9697 109.106C33.4841 109.106 33.9774 109.31 34.3411 109.674C34.7048 110.038 34.9091 110.531 34.9091 111.045V112.985H31.0303V111.045Z" fill="#3D3F4A"/>
<path d="M46.5455 109.106H50.4242V112.985H46.5455V109.106Z" fill="#3D3F4A"/>
<path d="M50.4242 109.106H54.303V112.985H50.4242V109.106Z" fill="#3D3F4A"/>
<path d="M54.303 109.106H58.1818V112.985H54.303V109.106Z" fill="#3D3F4A"/>
<path d="M58.1818 109.106H62.0606V112.985H58.1818V109.106Z" fill="#3D3F4A"/>
<path d="M62.0606 109.106H65.9394V112.985H62.0606V109.106Z" fill="#3D3F4A"/>
<path d="M77.5758 109.106H81.4546V112.985H77.5758V109.106Z" fill="#3D3F4A"/>
<path d="M83.3939 109.106C83.9083 109.106 84.4016 109.31 84.7653 109.674C85.129 110.038 85.3333 110.531 85.3333 111.045C85.3333 111.56 85.129 112.053 84.7653 112.417C84.4016 112.781 83.9083 112.985 83.3939 112.985H81.4546V109.106H83.3939Z" fill="#3D3F4A"/>
<path d="M89.2121 109.106C89.2121 110.135 89.6208 111.121 90.3482 111.849C91.0756 112.576 92.0622 112.985 93.0909 112.985V109.106H89.2121Z" fill="#3D3F4A"/>
<path d="M93.0909 109.106H96.9697V112.985H93.0909V109.106Z" fill="#3D3F4A"/>
<path d="M96.9697 109.106H100.848V112.985H96.9697V109.106Z" fill="#3D3F4A"/>
<path d="M100.848 109.106H104.727V112.985H100.848V109.106Z" fill="#3D3F4A"/>
<path d="M104.727 109.106H108.606V112.985H104.727V109.106Z" fill="#3D3F4A"/>
<path d="M108.606 109.106H112.485V112.985H108.606V109.106Z" fill="#3D3F4A"/>
<path d="M112.485 109.106H116.364V112.985H112.485V109.106Z" fill="#3D3F4A"/>
<path d="M120.242 111.045C120.242 111.56 120.447 112.053 120.81 112.417C121.174 112.781 121.667 112.985 122.182 112.985C122.696 112.985 123.189 112.781 123.553 112.417C123.917 112.053 124.121 111.56 124.121 111.045V109.106H120.242V111.045Z" fill="#3D3F4A"/>
<path d="M0 112.985H3.87879V116.864H0V112.985Z" fill="#3D3F4A"/>
<path d="M7.75758 112.985H11.6364V116.864H7.75758V112.985Z" fill="#3D3F4A"/>
<path d="M11.6364 112.985H15.5152V116.864H11.6364V112.985Z" fill="#3D3F4A"/>
<path d="M15.5152 112.985H19.3939V116.864H15.5152V112.985Z" fill="#3D3F4A"/>
<path d="M23.2727 112.985H27.1515V116.864H23.2727V112.985Z" fill="#3D3F4A"/>
<path d="M31.0303 112.985C31.0303 114.014 31.439 115 32.1664 115.728C32.8938 116.455 33.8804 116.864 34.9091 116.864V112.985H31.0303Z" fill="#3D3F4A"/>
<path d="M36.8485 112.985C37.3628 112.985 37.8561 113.189 38.2198 113.553C38.5836 113.917 38.7879 114.41 38.7879 114.924C38.7879 115.439 38.5836 115.932 38.2198 116.296C37.8561 116.659 37.3628 116.864 36.8485 116.864H34.9091V112.985H36.8485Z" fill="#3D3F4A"/>
<path d="M42.6667 116.864C42.6667 115.835 43.0753 114.848 43.8027 114.121C44.5302 113.394 45.5167 112.985 46.5455 112.985V116.864H42.6667Z" fill="#3D3F4A"/>
<path d="M46.5455 112.985H50.4242V116.864H46.5455V112.985Z" fill="#3D3F4A"/>
<path d="M58.1818 112.985H62.0606V116.864H58.1818V112.985Z" fill="#3D3F4A"/>
<path d="M62.0606 112.985H65.9394V116.864H62.0606V112.985Z" fill="#3D3F4A"/>
<path d="M65.9394 112.985H69.8182V116.864H65.9394V112.985Z" fill="#3D3F4A"/>
<path d="M71.7576 112.985C72.2719 112.985 72.7652 113.189 73.1289 113.553C73.4927 113.917 73.697 114.41 73.697 114.924C73.697 115.439 73.4927 115.932 73.1289 116.296C72.7652 116.659 72.2719 116.864 71.7576 116.864H69.8182V112.985H71.7576Z" fill="#3D3F4A"/>
<path d="M77.5758 114.924C77.5758 115.439 77.7801 115.932 78.1438 116.296C78.5075 116.659 79.0008 116.864 79.5152 116.864C80.0295 116.864 80.5228 116.659 80.8865 116.296C81.2502 115.932 81.4546 115.439 81.4546 114.924V112.985H77.5758V114.924Z" fill="#3D3F4A"/>
<path d="M87.2727 112.985C87.7871 112.985 88.2804 113.189 88.6441 113.553C89.0078 113.917 89.2121 114.41 89.2121 114.924C89.2121 115.439 89.0078 115.932 88.6441 116.296C88.2804 116.659 87.7871 116.864 87.2727 116.864C86.7584 116.864 86.2651 116.659 85.9014 116.296C85.5377 115.932 85.3333 115.439 85.3333 114.924C85.3333 114.41 85.5377 113.917 85.9014 113.553C86.2651 113.189 86.7584 112.985 87.2727 112.985Z" fill="#3D3F4A"/>
<path d="M96.9697 114.924C96.9697 115.439 97.174 115.932 97.5377 116.296C97.9014 116.659 98.3947 116.864 98.9091 116.864C99.4235 116.864 99.9167 116.659 100.28 116.296C100.644 115.932 100.848 115.439 100.848 114.924V112.985H96.9697V114.924Z" fill="#3D3F4A"/>
<path d="M104.727 114.924C104.727 115.439 104.932 115.932 105.295 116.296C105.659 116.659 106.152 116.864 106.667 116.864C107.181 116.864 107.674 116.659 108.038 116.296C108.402 115.932 108.606 115.439 108.606 114.924V112.985H104.727V114.924Z" fill="#3D3F4A"/>
<path d="M112.485 112.985C112.485 114.014 112.894 115 113.621 115.728C114.348 116.455 115.335 116.864 116.364 116.864V112.985H112.485Z" fill="#3D3F4A"/>
<path d="M116.364 112.985C117.392 112.985 118.379 113.394 119.106 114.121C119.834 114.848 120.242 115.835 120.242 116.864H116.364V112.985Z" fill="#3D3F4A"/>
<path d="M124.121 114.924C124.121 114.41 124.326 113.917 124.689 113.553C125.053 113.189 125.546 112.985 126.061 112.985C126.575 112.985 127.068 113.189 127.432 113.553C127.796 113.917 128 114.41 128 114.924V116.864H124.121V114.924Z" fill="#3D3F4A"/>
<path d="M0 116.864H3.87879V120.742H0V116.864Z" fill="#3D3F4A"/>
<path d="M7.75758 116.864C7.75758 117.892 8.16623 118.879 8.89365 119.606C9.62106 120.334 10.6076 120.742 11.6364 120.742V116.864H7.75758Z" fill="#3D3F4A"/>
<path d="M11.6364 116.864H15.5152V120.742H11.6364V116.864Z" fill="#3D3F4A"/>
<path d="M15.5152 120.742C16.5439 120.742 17.5305 120.334 18.2579 119.606C18.9853 118.879 19.3939 117.892 19.3939 116.864H15.5152V120.742Z" fill="#3D3F4A"/>
<path d="M23.2727 116.864H27.1515V120.742H23.2727V116.864Z" fill="#3D3F4A"/>
<path d="M42.6667 116.864C42.6667 117.892 43.0753 118.879 43.8027 119.606C44.5302 120.334 45.5167 120.742 46.5455 120.742V116.864H42.6667Z" fill="#3D3F4A"/>
<path d="M46.5455 116.864H50.4242V120.742H46.5455V116.864Z" fill="#3D3F4A"/>
<path d="M50.4242 116.864H54.303V120.742H50.4242V116.864Z" fill="#3D3F4A"/>
<path d="M54.303 116.864H58.1818V120.742H54.303V116.864Z" fill="#3D3F4A"/>
<path d="M58.1818 120.742C59.2105 120.742 60.1971 120.334 60.9245 119.606C61.652 118.879 62.0606 117.892 62.0606 116.864H58.1818V120.742Z" fill="#3D3F4A"/>
<path d="M73.697 118.803C73.697 118.289 73.9013 117.795 74.265 117.432C74.6287 117.068 75.122 116.864 75.6364 116.864C76.1507 116.864 76.644 117.068 77.0077 117.432C77.3714 117.795 77.5758 118.289 77.5758 118.803V120.742H73.697V118.803Z" fill="#3D3F4A"/>
<path d="M95.0303 116.864C95.5447 116.864 96.038 117.068 96.4017 117.432C96.7654 117.795 96.9697 118.289 96.9697 118.803C96.9697 119.317 96.7654 119.811 96.4017 120.174C96.038 120.538 95.5447 120.742 95.0303 120.742C94.5159 120.742 94.0227 120.538 93.659 120.174C93.2952 119.811 93.0909 119.317 93.0909 118.803C93.0909 118.289 93.2952 117.795 93.659 117.432C94.0227 117.068 94.5159 116.864 95.0303 116.864Z" fill="#3D3F4A"/>
<path d="M110.545 116.864C111.06 116.864 111.553 117.068 111.917 117.432C112.281 117.795 112.485 118.289 112.485 118.803C112.485 119.317 112.281 119.811 111.917 120.174C111.553 120.538 111.06 120.742 110.545 120.742C110.031 120.742 109.538 120.538 109.174 120.174C108.81 119.811 108.606 119.317 108.606 118.803C108.606 118.289 108.81 117.795 109.174 117.432C109.538 117.068 110.031 116.864 110.545 116.864Z" fill="#3D3F4A"/>
<path d="M116.364 116.864H120.242V120.742H116.364V116.864Z" fill="#3D3F4A"/>
<path d="M120.242 116.864H124.121V120.742H120.242V116.864Z" fill="#3D3F4A"/>
<path d="M124.121 116.864H128V120.742H124.121V116.864Z" fill="#3D3F4A"/>
<path d="M0 120.742H3.87879V124.621H0V120.742Z" fill="#3D3F4A"/>
<path d="M23.2727 120.742H27.1515V124.621H23.2727V120.742Z" fill="#3D3F4A"/>
<path d="M36.8485 120.742C37.3628 120.742 37.8561 120.947 38.2198 121.31C38.5836 121.674 38.7879 122.167 38.7879 122.682C38.7879 123.196 38.5836 123.689 38.2198 124.053C37.8561 124.417 37.3628 124.621 36.8485 124.621C36.3341 124.621 35.8408 124.417 35.4771 124.053C35.1134 123.689 34.9091 123.196 34.9091 122.682C34.9091 122.167 35.1134 121.674 35.4771 121.31C35.8408 120.947 36.3341 120.742 36.8485 120.742Z" fill="#3D3F4A"/>
<path d="M69.8182 124.621C69.8182 123.593 70.2269 122.606 70.9543 121.879C71.6817 121.151 72.6683 120.742 73.697 120.742V124.621H69.8182Z" fill="#3D3F4A"/>
<path d="M73.697 124.621C74.7257 124.621 75.7123 124.213 76.4397 123.485C77.1671 122.758 77.5758 121.771 77.5758 120.742H73.697V124.621Z" fill="#3D3F4A"/>
<path d="M96.9697 124.621C96.9697 123.593 97.3784 122.606 98.1058 121.879C98.8332 121.151 99.8198 120.742 100.848 120.742V124.621H96.9697Z" fill="#3D3F4A"/>
<path d="M100.848 120.742C101.877 120.742 102.864 121.151 103.591 121.879C104.319 122.606 104.727 123.593 104.727 124.621H100.848V120.742Z" fill="#3D3F4A"/>
<path d="M112.485 124.621C112.485 123.593 112.894 122.606 113.621 121.879C114.348 121.151 115.335 120.742 116.364 120.742V124.621H112.485Z" fill="#3D3F4A"/>
<path d="M116.364 120.742H120.242V124.621H116.364V120.742Z" fill="#3D3F4A"/>
<path d="M120.242 120.742H124.121V124.621H120.242V120.742Z" fill="#3D3F4A"/>
<path d="M124.121 124.621C125.15 124.621 126.137 124.213 126.864 123.485C127.591 122.758 128 121.771 128 120.742H124.121V124.621Z" fill="#3D3F4A"/>
<path d="M0 124.621C0 125.65 0.408657 126.637 1.13607 127.364C1.86348 128.091 2.85007 128.5 3.87879 128.5V124.621H0Z" fill="#3D3F4A"/>
<path d="M3.87879 124.621H7.75758V128.5H3.87879V124.621Z" fill="#3D3F4A"/>
<path d="M7.75758 124.621H11.6364V128.5H7.75758V124.621Z" fill="#3D3F4A"/>
<path d="M11.6364 124.621H15.5152V128.5H11.6364V124.621Z" fill="#3D3F4A"/>
<path d="M15.5152 124.621H19.3939V128.5H15.5152V124.621Z" fill="#3D3F4A"/>
<path d="M19.3939 124.621H23.2727V128.5H19.3939V124.621Z" fill="#3D3F4A"/>
<path d="M23.2727 128.5C24.3014 128.5 25.288 128.091 26.0154 127.364C26.7429 126.637 27.1515 125.65 27.1515 124.621H23.2727V128.5Z" fill="#3D3F4A"/>
<path d="M40.7273 124.621C40.2129 124.621 39.7196 124.826 39.3559 125.189C38.9922 125.553 38.7879 126.046 38.7879 126.561C38.7879 127.075 38.9922 127.568 39.3559 127.932C39.7196 128.296 40.2129 128.5 40.7273 128.5H42.6667V124.621H40.7273Z" fill="#3D3F4A"/>
<path d="M44.6061 124.621C45.1204 124.621 45.6137 124.826 45.9774 125.189C46.3411 125.553 46.5455 126.046 46.5455 126.561C46.5455 127.075 46.3411 127.568 45.9774 127.932C45.6137 128.296 45.1204 128.5 44.6061 128.5H42.6667V124.621H44.6061Z" fill="#3D3F4A"/>
<path d="M56.2424 124.621C56.7568 124.621 57.2501 124.826 57.6138 125.189C57.9775 125.553 58.1818 126.046 58.1818 126.561C58.1818 127.075 57.9775 127.568 57.6138 127.932C57.2501 128.296 56.7568 128.5 56.2424 128.5C55.7281 128.5 55.2348 128.296 54.8711 127.932C54.5074 127.568 54.303 127.075 54.303 126.561C54.303 126.046 54.5074 125.553 54.8711 125.189C55.2348 124.826 55.7281 124.621 56.2424 124.621Z" fill="#3D3F4A"/>
<path d="M64 124.621C64.5144 124.621 65.0077 124.826 65.3714 125.189C65.7351 125.553 65.9394 126.046 65.9394 126.561C65.9394 127.075 65.7351 127.568 65.3714 127.932C65.0077 128.296 64.5144 128.5 64 128.5C63.4856 128.5 62.9924 128.296 62.6286 127.932C62.2649 127.568 62.0606 127.075 62.0606 126.561C62.0606 126.046 62.2649 125.553 62.6286 125.189C62.9924 124.826 63.4856 124.621 64 124.621Z" fill="#3D3F4A"/>
<path d="M69.8182 126.561C69.8182 127.075 70.0225 127.568 70.3862 127.932C70.7499 128.296 71.2432 128.5 71.7576 128.5C72.2719 128.5 72.7652 128.296 73.1289 127.932C73.4927 127.568 73.697 127.075 73.697 126.561V124.621H69.8182V126.561Z" fill="#3D3F4A"/>
<path d="M91.1515 124.621C90.6372 124.621 90.1439 124.826 89.7802 125.189C89.4165 125.553 89.2121 126.046 89.2121 126.561C89.2121 127.075 89.4165 127.568 89.7802 127.932C90.1439 128.296 90.6372 128.5 91.1515 128.5H93.0909V124.621H91.1515Z" fill="#3D3F4A"/>
<path d="M93.0909 124.621H96.9697V128.5H93.0909V124.621Z" fill="#3D3F4A"/>
<path d="M96.9697 124.621H100.848V128.5H96.9697V124.621Z" fill="#3D3F4A"/>
<path d="M100.848 128.5C101.877 128.5 102.864 128.091 103.591 127.364C104.319 126.637 104.727 125.65 104.727 124.621H100.848V128.5Z" fill="#3D3F4A"/>
<path d="M110.545 124.621C110.031 124.621 109.538 124.826 109.174 125.189C108.81 125.553 108.606 126.046 108.606 126.561C108.606 127.075 108.81 127.568 109.174 127.932C109.538 128.296 110.031 128.5 110.545 128.5H112.485V124.621H110.545Z" fill="#3D3F4A"/>
<path d="M112.485 128.5C113.514 128.5 114.5 128.091 115.228 127.364C115.955 126.637 116.364 125.65 116.364 124.621H112.485V128.5Z" fill="#3D3F4A"/>
</svg>
