<svg width="13" height="13" viewBox="0 0 13 13" fill="none" xmlns="http://www.w3.org/2000/svg">
<g clip-path="url(#clip0_1263_6740)">
<path d="M9.62446 6.87769C9.62446 5.35782 10.8802 4.63059 10.9133 4.59753C10.2198 3.57351 9.09592 3.41182 8.7323 3.41182C7.80709 3.31265 6.91493 3.97341 6.45214 3.97341C5.9563 3.97341 5.26643 3.44523 4.46949 3.44523C3.4778 3.44523 2.51989 4.03989 2.02405 4.93204C0.933552 6.78247 1.72654 9.49524 2.75092 10.9792C3.24677 11.7061 3.84142 12.5321 4.63441 12.499C5.39434 12.466 5.69185 12.0032 6.61706 12.0032C7.54228 12.0032 7.80277 12.499 8.59971 12.466C9.42612 12.466 9.92196 11.7391 10.4171 11.0119C11.0117 10.1855 11.2435 9.35978 11.2435 9.29367C11.2104 9.29367 9.65751 8.69901 9.62446 6.88128V6.87769ZM8.13765 2.41654C8.53432 1.88836 8.83111 1.19382 8.76535 0.5C8.1707 0.533056 7.44311 0.896668 7.0141 1.42521C6.65048 1.85494 6.28722 2.58218 6.38639 3.27565C7.0141 3.3087 7.70864 2.91202 8.13765 2.4133V2.41654Z" fill="#3D3F4A"/>
</g>
<defs>
<clipPath id="clip0_1263_6740">
<rect width="12" height="12" fill="white" transform="translate(0.5 0.5)"/>
</clipPath>
</defs>
</svg>
