<svg width="16" height="16" viewBox="0 0 16 16" fill="none" xmlns="http://www.w3.org/2000/svg">
<mask id="mask0_1265_3579" style="mask-type:alpha" maskUnits="userSpaceOnUse" x="0" y="0" width="16" height="16">
<rect width="16" height="16" fill="#D9D9D9"/>
</mask>
<g mask="url(#mask0_1265_3579)">
<path d="M6.709 13.1487C6.45345 12.7564 6.2261 12.3299 6.02695 11.8692C5.8278 11.4085 5.66754 10.935 5.54617 10.4487H3.2846C3.64103 11.1453 4.10898 11.7259 4.68847 12.1904C5.26797 12.6549 5.94148 12.9744 6.709 13.1487ZM2.86539 9.44874H5.3436C5.30173 9.20087 5.27139 8.95792 5.25259 8.71989C5.23379 8.48184 5.22439 8.24188 5.22439 8C5.22439 7.75813 5.23379 7.51817 5.25259 7.28012C5.27139 7.04209 5.30173 6.79914 5.3436 6.55127H2.86539C2.80129 6.77777 2.75214 7.01324 2.71795 7.25769C2.68376 7.50213 2.66667 7.74957 2.66667 8C2.66667 8.25044 2.68376 8.49788 2.71795 8.74232C2.75214 8.98677 2.80129 9.22224 2.86539 9.44874ZM3.2846 5.5513H5.54617C5.65899 5.0607 5.81711 4.58185 6.02054 4.11475C6.22396 3.64765 6.45345 3.22649 6.709 2.85127C5.96285 3.01708 5.29361 3.33546 4.70129 3.8064C4.10898 4.27735 3.63675 4.85898 3.2846 5.5513ZM6.57307 5.5513H9.42694C9.28078 5.00686 9.09147 4.50515 8.85899 4.04617C8.62651 3.58719 8.34018 3.13206 8 2.68077C7.65983 3.11496 7.37564 3.56154 7.14744 4.02052C6.91923 4.4795 6.72777 4.98976 6.57307 5.5513ZM10.4538 5.5513H12.7154C12.3633 4.85898 11.891 4.27628 11.2987 3.8032C10.7064 3.33013 10.0372 3.01282 9.29101 2.85127C9.52519 3.22222 9.744 3.64124 9.94742 4.10834C10.1508 4.57544 10.3196 5.05643 10.4538 5.5513ZM8 14.3333C7.13163 14.3333 6.31219 14.1669 5.54169 13.834C4.77118 13.5011 4.09916 13.0479 3.52565 12.4744C2.95215 11.9008 2.49895 11.2288 2.16605 10.4583C1.83314 9.68782 1.66669 8.86838 1.66669 8C1.66669 7.12479 1.83314 6.30364 2.16605 5.53655C2.49895 4.76947 2.95215 4.09917 3.52565 3.52565C4.09916 2.95215 4.77118 2.49895 5.54169 2.16605C6.31219 1.83314 7.13163 1.66669 8 1.66669C8.87522 1.66669 9.69637 1.83314 10.4635 2.16605C11.2305 2.49895 11.9008 2.95215 12.4744 3.52565C13.0479 4.09917 13.5011 4.76947 13.834 5.53655C14.1669 6.30364 14.3333 7.12479 14.3333 8C14.3333 8.11539 14.3305 8.23292 14.325 8.35257C14.3194 8.47223 14.309 8.58975 14.2936 8.70514H13.2769C13.2991 8.58975 13.3141 8.47394 13.3218 8.35771C13.3295 8.24146 13.3333 8.12223 13.3333 8C13.3333 7.74957 13.3162 7.50213 13.2821 7.25769C13.2479 7.01324 13.1987 6.77777 13.1346 6.55127H10.6564C10.6983 6.79914 10.7286 7.04209 10.7474 7.28012C10.7662 7.51817 10.7756 7.75813 10.7756 8C10.7756 8.12223 10.7746 8.24039 10.7724 8.35449C10.7703 8.4686 10.7637 8.58548 10.7526 8.70514H9.75257C9.76368 8.58975 9.77031 8.47394 9.77245 8.35771C9.77459 8.24146 9.77565 8.12223 9.77565 8C9.77565 7.74957 9.76625 7.50748 9.74745 7.27372C9.72864 7.03995 9.6983 6.79914 9.65642 6.55127H6.34359C6.30171 6.79914 6.27137 7.03995 6.25255 7.27372C6.23375 7.50748 6.22435 7.74957 6.22435 8C6.22435 8.25044 6.23375 8.49253 6.25255 8.72629C6.27137 8.96005 6.30171 9.20087 6.34359 9.44874H8.70514V10.4487H6.57307C6.72777 11.006 6.92243 11.5194 7.15705 11.9891C7.39167 12.4588 7.67265 12.9021 8 13.3192C8.13077 13.1457 8.25385 12.9684 8.36924 12.7872C8.48463 12.606 8.59659 12.4209 8.70514 12.2321V14.2936C8.58975 14.309 8.47394 14.3194 8.3577 14.325C8.24146 14.3305 8.12223 14.3333 8 14.3333ZM11.1667 11.8795V13.1C11.1667 13.2419 11.1188 13.3607 11.0231 13.4564C10.9273 13.5521 10.8085 13.6 10.6667 13.6C10.5248 13.6 10.406 13.5521 10.3103 13.4564C10.2146 13.3607 10.1667 13.2419 10.1667 13.1V10.7692C10.1667 10.5974 10.2242 10.4541 10.3391 10.3391C10.4541 10.2242 10.5974 10.1667 10.7692 10.1667H13.1C13.2419 10.1667 13.3607 10.2145 13.4564 10.3103C13.5521 10.406 13.6 10.5248 13.6 10.6667C13.6 10.8085 13.5521 10.9274 13.4564 11.0231C13.3607 11.1188 13.2419 11.1667 13.1 11.1667H11.8628L13.6513 12.9487C13.7436 13.041 13.7897 13.1564 13.7897 13.2949C13.7897 13.4333 13.7436 13.5521 13.6513 13.6513C13.5521 13.7547 13.4333 13.8053 13.2949 13.8032C13.1564 13.8011 13.0376 13.7504 12.9385 13.6513L11.1667 11.8795Z" fill="#73768A"/>
</g>
</svg>
